<svg xmlns="http://www.w3.org/2000/svg" xmlns:xlink="http://www.w3.org/1999/xlink" width="500" zoomAndPan="magnify" viewBox="0 0 375 374.999991" height="500" preserveAspectRatio="xMidYMid meet" version="1.0"><defs><g/><clipPath id="34c8ed2c38"><path d="M 128.25 71.078125 L 244.3125 71.078125 L 244.3125 235.535156 L 128.25 235.535156 Z M 128.25 71.078125 " clip-rule="nonzero"/></clipPath><clipPath id="47a56b7474"><path d="M 124.480469 66.035156 L 271 66.035156 L 271 235.535156 L 124.480469 235.535156 Z M 124.480469 66.035156 " clip-rule="nonzero"/></clipPath><clipPath id="2d683826ed"><rect x="0" width="153" y="0" height="42"/></clipPath><clipPath id="7bede6a009"><rect x="0" width="72" y="0" height="21"/></clipPath></defs><rect x="-37.5" width="450" fill="#ffffff" y="-37.499999" height="449.999989" fill-opacity="1"/><rect x="-37.5" width="450" fill="#ffffff" y="-37.499999" height="449.999989" fill-opacity="1"/><g clip-path="url(#34c8ed2c38)"><path fill="#000000" d="M 128.464844 144.207031 C 128.644531 144.175781 128.824219 144.148438 129.003906 144.132812 C 129.332031 144.097656 129.65625 144.082031 129.980469 144.082031 C 130.628906 144.082031 131.277344 144.148438 131.90625 144.277344 L 131.90625 74.6875 L 165.945312 74.6875 C 166.566406 73.457031 167.253906 72.308594 168.003906 71.246094 L 128.464844 71.246094 Z M 240.640625 232.339844 L 227.1875 232.339844 L 230.515625 235.785156 L 244.082031 235.785156 L 244.082031 163.261719 L 240.640625 163.292969 Z M 131.90625 159.480469 C 131.582031 159.566406 131.246094 159.632812 130.898438 159.671875 L 130.6875 157.527344 L 130.898438 159.671875 C 130.660156 159.695312 130.425781 159.707031 130.191406 159.707031 C 129.597656 159.707031 129.019531 159.621094 128.464844 159.484375 L 128.464844 235.785156 L 164.78125 235.785156 L 166.445312 232.339844 L 131.90625 232.339844 Z M 195.398438 232.339844 L 195.023438 235.785156 L 213.910156 235.785156 L 210.324219 232.339844 Z M 205.660156 71.246094 C 206.351562 72.089844 207.007812 73.003906 207.621094 73.980469 C 207.765625 74.210938 207.90625 74.449219 208.046875 74.6875 L 240.640625 74.6875 L 240.640625 100.054688 L 244.082031 100.355469 L 244.082031 71.246094 L 205.660156 71.246094 " fill-opacity="1" fill-rule="nonzero"/></g><g clip-path="url(#47a56b7474)"><path fill="#000000" d="M 172.410156 192.25 L 172.390625 192.25 C 172.371094 192.25 172.347656 192.25 172.324219 192.25 C 172.355469 192.25 172.382812 192.25 172.410156 192.25 Z M 147.003906 132.660156 C 141.769531 129.089844 137.839844 120.785156 137.292969 110.773438 C 136.53125 96.855469 142.605469 84.910156 150.851562 84.089844 C 152.761719 83.902344 154.621094 84.332031 156.359375 85.269531 C 156.765625 85.542969 157.160156 85.832031 157.546875 86.160156 L 164.503906 86.664062 C 164.488281 86.757812 164.476562 86.851562 164.460938 86.949219 L 158.757812 87.292969 C 158.808594 87.34375 158.855469 87.394531 158.902344 87.449219 L 164.363281 87.675781 C 164.335938 87.882812 164.3125 88.09375 164.289062 88.304688 L 160.066406 88.808594 C 160.089844 88.839844 160.109375 88.871094 160.136719 88.898438 L 164.210938 89.066406 C 164.167969 89.53125 164.132812 89.992188 164.101562 90.460938 L 161.515625 90.921875 C 161.570312 91.011719 161.625 91.101562 161.679688 91.195312 L 164.0625 91.257812 C 164.027344 92.027344 164.011719 92.804688 164.015625 93.589844 L 163.042969 93.835938 C 163.082031 93.914062 163.117188 93.984375 163.148438 94.0625 L 164.019531 94.109375 C 164.027344 94.746094 164.046875 95.378906 164.082031 96.019531 C 164.304688 100.109375 165.035156 103.945312 166.15625 107.363281 C 166.722656 118.554688 162.878906 128.441406 157.042969 132.253906 L 162.179688 130.242188 C 165.820312 126.882812 168.226562 120.414062 168.277344 113.023438 C 169.417969 115.40625 172.910156 121.734375 178.59375 123.808594 L 180.714844 122.976562 C 178.957031 122.578125 177.890625 122.121094 176.753906 121.539062 C 176.3125 121.300781 175.882812 121.03125 175.457031 120.742188 C 169.921875 116.523438 165.816406 107.507812 165.226562 96.714844 C 164.375 81.136719 171.167969 67.765625 180.402344 66.851562 C 182.539062 66.636719 184.621094 67.125 186.570312 68.171875 C 187.019531 68.476562 187.460938 68.804688 187.894531 69.167969 L 198.046875 69.902344 L 189.246094 70.433594 C 189.304688 70.492188 189.355469 70.550781 189.410156 70.609375 L 199.820312 71.042969 L 190.710938 72.132812 C 190.738281 72.167969 190.761719 72.199219 190.789062 72.234375 L 202.324219 72.714844 L 192.332031 74.496094 C 192.394531 74.597656 192.457031 74.699219 192.515625 74.800781 L 204.46875 75.125 L 194.046875 77.757812 C 194.085938 77.84375 194.125 77.925781 194.164062 78.011719 L 206.679688 78.746094 L 195.578125 81.792969 C 195.632812 81.964844 195.6875 82.132812 195.738281 82.308594 L 207.304688 82.828125 L 196.402344 84.800781 C 196.429688 84.914062 196.453125 85.03125 196.484375 85.144531 L 207.363281 85.75 L 196.816406 86.796875 C 197.164062 88.691406 197.410156 90.664062 197.519531 92.707031 C 198.371094 108.285156 191.578125 121.65625 182.34375 122.570312 C 184.265625 122.378906 193.109375 123.523438 196.058594 123.230469 C 205.238281 122.320312 211.992188 109.03125 211.144531 93.546875 C 210.351562 79.027344 203.160156 67.738281 194.699219 67.132812 C 194.144531 67.09375 183.671875 66.300781 180.976562 66.132812 C 180.992188 66.132812 181.007812 66.136719 181.027344 66.140625 C 180.441406 66.09375 179.851562 66.097656 179.257812 66.15625 C 172.417969 66.835938 166.921875 74.347656 164.875 84.53125 C 164.460938 84.441406 164.050781 84.371094 163.628906 84.339844 C 163.132812 84.304688 153.773438 83.597656 151.367188 83.449219 C 151.398438 83.449219 151.429688 83.457031 151.460938 83.460938 C 151.28125 83.445312 151.101562 83.4375 150.917969 83.433594 C 151.066406 83.4375 151.214844 83.4375 151.363281 83.445312 C 151.324219 83.445312 151.28125 83.441406 151.246094 83.441406 C 151.128906 83.433594 151.011719 83.433594 150.890625 83.433594 C 150.542969 83.425781 150.1875 83.433594 149.828125 83.46875 C 141.582031 84.285156 135.507812 96.234375 136.269531 110.152344 C 136.851562 120.804688 141.269531 129.515625 147.003906 132.660156 Z M 178.351562 83.066406 C 178.386719 83.074219 178.421875 83.082031 178.445312 83.085938 C 178.460938 83.089844 178.472656 83.097656 178.488281 83.097656 C 178.445312 83.089844 178.398438 83.078125 178.351562 83.066406 Z M 175.453125 87.027344 C 175.460938 87.03125 175.472656 87.035156 175.480469 87.035156 C 175.449219 87.027344 175.417969 87.019531 175.386719 87.011719 C 175.410156 87.015625 175.433594 87.023438 175.453125 87.027344 Z M 180.714844 107 C 184.648438 106.613281 187.546875 100.910156 187.183594 94.269531 C 186.84375 88.042969 183.757812 83.199219 180.128906 82.941406 C 179.890625 82.921875 177.984375 82.84375 177.046875 82.957031 C 177.058594 82.957031 177.078125 82.960938 177.09375 82.960938 C 177.039062 82.960938 176.984375 82.960938 176.929688 82.96875 C 174.257812 83.234375 172.066406 85.933594 171.03125 89.710938 C 170.199219 91.328125 169.746094 93.5 169.875 95.84375 C 170.003906 98.195312 170.695312 100.261719 171.699219 101.691406 C 172.632812 103.980469 173.996094 105.71875 175.570312 106.582031 C 174.34375 105.742188 173.269531 104.351562 172.457031 102.59375 C 172.769531 102.90625 173.105469 103.15625 173.453125 103.351562 C 171.710938 102.160156 170.398438 99.390625 170.214844 96.050781 C 169.960938 91.40625 171.988281 87.421875 174.738281 87.152344 C 175.375 87.089844 175.988281 87.234375 176.566406 87.542969 C 178.328125 88.722656 179.652344 91.5 179.839844 94.855469 C 180.09375 99.5 178.070312 103.484375 175.316406 103.757812 C 175.890625 103.699219 176.148438 103.730469 177.027344 103.644531 C 179.761719 103.371094 181.777344 99.410156 181.523438 94.796875 C 181.285156 90.46875 179.140625 87.105469 176.621094 86.925781 C 176.457031 86.910156 175.128906 86.859375 174.480469 86.9375 C 174.488281 86.9375 174.5 86.9375 174.515625 86.9375 C 174.476562 86.941406 174.433594 86.941406 174.398438 86.945312 C 173.585938 87.027344 172.835938 87.429688 172.191406 88.082031 C 173.363281 85.339844 175.230469 83.484375 177.421875 83.265625 C 178.328125 83.175781 179.207031 83.378906 180.039062 83.820312 C 182.578125 85.511719 184.496094 89.511719 184.761719 94.355469 C 185.128906 101.039062 182.210938 106.773438 178.25 107.164062 C 179.078125 107.085938 179.449219 107.128906 180.714844 107 Z M 178.34375 106.03125 C 178.363281 106.027344 178.382812 106.027344 178.402344 106.023438 C 181.9375 105.675781 184.53125 100.402344 184.195312 94.25 C 183.859375 88.09375 180.71875 83.390625 177.183594 83.742188 C 176.152344 83.84375 175.199219 84.367188 174.375 85.210938 C 175.128906 84.523438 175.984375 84.09375 176.902344 84.003906 C 180.398438 83.65625 183.507812 88.3125 183.839844 94.402344 C 184.167969 100.359375 181.722656 105.472656 178.34375 106.03125 Z M 235.144531 133.5 L 263.917969 118.46875 L 234.675781 129.980469 L 262.4375 114.679688 L 232.433594 128.480469 L 264.632812 109.582031 C 265.253906 110.621094 265.664062 111.769531 265.78125 112.964844 L 267.167969 126.925781 Z M 235.34375 159.796875 C 231.246094 159.441406 227.570312 155.859375 227.171875 151.839844 L 222.949219 109.246094 C 222.554688 105.226562 225.574219 102.226562 229.671875 102.582031 L 257.613281 105.007812 C 257.855469 105.027344 258.101562 105.0625 258.34375 105.105469 C 258.441406 105.125 258.539062 105.148438 258.636719 105.171875 C 258.773438 105.203125 258.914062 105.230469 259.050781 105.269531 C 259.179688 105.304688 259.304688 105.347656 259.429688 105.386719 C 259.535156 105.421875 259.636719 105.453125 259.738281 105.488281 C 259.882812 105.542969 260.027344 105.605469 260.171875 105.664062 C 260.246094 105.699219 260.320312 105.730469 260.394531 105.761719 C 260.554688 105.835938 260.710938 105.914062 260.871094 106 C 260.917969 106.027344 260.96875 106.054688 261.019531 106.082031 C 261.191406 106.175781 261.363281 106.277344 261.523438 106.382812 C 261.558594 106.402344 261.585938 106.421875 261.617188 106.441406 C 261.796875 106.558594 261.96875 106.679688 262.136719 106.808594 C 262.152344 106.820312 262.167969 106.832031 262.179688 106.839844 C 262.359375 106.980469 262.535156 107.121094 262.707031 107.269531 L 262.707031 107.273438 C 261.515625 106.503906 260.167969 105.996094 258.765625 105.875 L 230.820312 103.453125 C 226.726562 103.097656 223.703125 106.09375 224.101562 110.113281 L 225.910156 128.347656 L 228.195312 128.546875 C 229.910156 128.695312 231.445312 130.191406 231.609375 131.871094 L 233.261719 148.539062 C 233.324219 149.175781 233.183594 149.746094 232.890625 150.207031 C 237.777344 151.761719 256.621094 157.75 262.332031 159.539062 Z M 218.667969 151.484375 C 215.035156 149.8125 215.390625 146.4375 215.390625 146.4375 C 215.390625 146.4375 213.761719 130.015625 213.511719 127.5 C 213.355469 125.953125 213.820312 124.457031 214.199219 123.539062 L 217.359375 147.5625 L 214.964844 121.984375 L 215.988281 120.035156 L 219.761719 148.734375 L 216.910156 118.269531 L 218.625 115 L 223.429688 151.519531 L 219.800781 112.75 L 221.871094 108.796875 L 226.238281 152.851562 C 226.320312 153.6875 226.542969 154.503906 226.871094 155.277344 C 224.824219 154.332031 221.183594 152.644531 218.667969 151.484375 Z M 206.152344 158.023438 C 204.683594 158.015625 203.25 157.664062 201.898438 157.03125 C 203.101562 157.539062 204.367188 157.824219 205.660156 157.828125 C 210.472656 157.851562 214.207031 154.074219 215.269531 148.765625 C 215.40625 149.21875 215.570312 149.605469 215.738281 149.925781 C 214.347656 154.734375 210.722656 158.042969 206.152344 158.023438 Z M 212.910156 178.519531 L 213.917969 180.082031 C 213.820312 180.148438 213.710938 180.183594 213.585938 180.183594 C 213.164062 180.183594 212.777344 179.753906 212.726562 179.222656 C 212.699219 178.945312 212.773438 178.695312 212.910156 178.519531 Z M 213.402344 178.269531 C 213.828125 178.269531 214.214844 178.703125 214.261719 179.230469 C 214.285156 179.453125 214.242188 179.65625 214.152344 179.816406 L 213.183594 178.316406 C 213.253906 178.289062 213.324219 178.269531 213.402344 178.269531 Z M 208.460938 168.363281 C 207.710938 169.613281 204.082031 175.601562 204.082031 175.601562 C 204.082031 175.601562 203.617188 176.511719 203.105469 176.574219 C 202.589844 176.640625 201.746094 175.769531 201.746094 175.769531 C 201.746094 175.769531 197.757812 171.054688 195.292969 168.246094 C 192.824219 165.433594 196.175781 166.074219 196.175781 166.074219 L 207.5625 166.558594 C 207.5625 166.558594 209.609375 166.457031 208.460938 168.363281 Z M 192.035156 180.875 L 190.945312 179.1875 C 191.023438 179.15625 191.101562 179.136719 191.191406 179.136719 C 191.667969 179.136719 192.101562 179.621094 192.160156 180.214844 C 192.183594 180.464844 192.136719 180.695312 192.035156 180.875 Z M 191.398438 181.289062 C 190.921875 181.285156 190.488281 180.800781 190.429688 180.207031 C 190.402344 179.894531 190.484375 179.613281 190.636719 179.417969 L 191.769531 181.171875 C 191.664062 181.246094 191.539062 181.289062 191.398438 181.289062 Z M 186.15625 144.824219 C 185.402344 137.011719 189.246094 130.523438 195.035156 129.101562 C 195.183594 129.066406 195.488281 128.996094 195.882812 128.90625 C 191.726562 131.824219 189.261719 137.378906 189.875 143.746094 C 190.695312 152.25 196.71875 159.285156 203.816406 160.515625 C 203.101562 160.664062 202.476562 160.785156 202.121094 160.835938 C 201.621094 160.910156 201.109375 160.949219 200.589844 160.945312 C 193.472656 160.914062 187.011719 153.695312 186.15625 144.824219 Z M 184.785156 125.566406 C 184.753906 125.25 184.835938 124.972656 184.988281 124.777344 L 186.121094 126.53125 C 186.015625 126.605469 185.886719 126.648438 185.75 126.644531 C 185.273438 126.644531 184.839844 126.164062 184.785156 125.566406 Z M 185.542969 124.496094 C 186.019531 124.496094 186.453125 124.980469 186.511719 125.574219 C 186.535156 125.824219 186.484375 126.050781 186.386719 126.234375 L 185.296875 124.542969 C 185.375 124.515625 185.457031 124.496094 185.542969 124.496094 Z M 201.925781 127.691406 C 202.097656 127.667969 202.273438 127.652344 202.449219 127.640625 C 195.746094 128.113281 191.0625 135.074219 191.886719 143.621094 C 192.742188 152.496094 199.203125 159.710938 206.320312 159.746094 C 206.972656 159.746094 207.605469 159.6875 208.222656 159.574219 C 208.1875 159.578125 208.152344 159.589844 208.113281 159.59375 C 207.753906 159.65625 206.011719 160.050781 204.445312 160.382812 C 197.328125 159.234375 191.265625 152.207031 190.445312 143.699219 C 189.820312 137.1875 192.433594 131.535156 196.78125 128.707031 C 198.542969 128.324219 201.050781 127.796875 201.925781 127.691406 Z M 200.152344 148.753906 C 199.820312 146.480469 200.523438 144.5 201.84375 143.425781 C 202.050781 143.359375 202.269531 143.289062 202.492188 143.21875 C 201.136719 144.351562 200.355469 146.277344 200.566406 148.457031 C 200.878906 151.726562 203.300781 154.402344 206.101562 154.699219 C 205.878906 154.769531 205.652344 154.839844 205.425781 154.914062 C 202.902344 154.511719 200.613281 151.90625 200.152344 148.753906 Z M 200.410156 143.867188 C 200.433594 143.863281 200.476562 143.847656 200.539062 143.832031 C 199.214844 144.90625 198.507812 146.890625 198.84375 149.164062 C 199.304688 152.320312 201.589844 154.921875 204.113281 155.328125 C 203.578125 155.496094 203.164062 155.613281 203.039062 155.632812 C 202.855469 155.660156 202.664062 155.671875 202.472656 155.671875 C 199.835938 155.660156 197.4375 152.984375 197.125 149.695312 C 196.84375 146.800781 198.265625 144.394531 200.410156 143.867188 Z M 196.726562 137.261719 C 197.085938 139.722656 198.875 141.761719 200.847656 142.078125 C 200.429688 142.207031 200.105469 142.304688 200.007812 142.316406 C 199.863281 142.335938 199.714844 142.347656 199.5625 142.347656 C 197.5 142.339844 195.628906 140.246094 195.378906 137.671875 C 195.160156 135.410156 196.277344 133.527344 197.953125 133.117188 C 197.96875 133.113281 198.003906 133.101562 198.050781 133.089844 C 197.015625 133.929688 196.464844 135.480469 196.726562 137.261719 Z M 206.539062 136.558594 C 206.671875 137.933594 206.308594 139.164062 205.632812 140.011719 C 205.640625 140.332031 205.667969 140.660156 205.714844 140.992188 C 205.777344 141.402344 205.867188 141.796875 205.980469 142.1875 C 205.792969 142.164062 205.609375 142.152344 205.421875 142.152344 C 204.910156 142.152344 204.425781 142.242188 203.96875 142.398438 C 203.914062 142.125 203.863281 141.851562 203.835938 141.570312 C 203.824219 141.425781 203.820312 141.285156 203.8125 141.144531 C 203.796875 141.148438 203.789062 141.152344 203.773438 141.15625 C 203.683594 141.167969 202.777344 141.464844 201.871094 141.753906 C 199.898438 141.4375 198.109375 139.402344 197.75 136.9375 C 197.488281 135.160156 198.039062 133.609375 199.070312 132.769531 C 200.179688 132.421875 201.734375 131.9375 201.980469 131.90625 C 202.101562 131.890625 202.226562 131.882812 202.355469 131.882812 C 204.164062 131.890625 205.832031 133.507812 206.375 135.640625 C 206.707031 135.453125 207.054688 135.304688 207.425781 135.210938 C 207.449219 135.207031 207.5 135.191406 207.5625 135.171875 C 207.15625 135.503906 206.804688 135.914062 206.515625 136.386719 C 206.523438 136.445312 206.53125 136.5 206.539062 136.558594 Z M 211.679688 133.3125 C 211.378906 133.914062 211.128906 134.566406 210.945312 135.265625 C 209.894531 136.328125 209.304688 138.035156 209.488281 139.96875 C 209.710938 142.246094 210.945312 144.21875 212.558594 145.199219 C 212.957031 145.835938 213.398438 146.417969 213.886719 146.941406 C 213.570312 147.042969 213.234375 147.152344 212.894531 147.261719 C 212.253906 147.160156 211.625 146.921875 211.035156 146.578125 C 211.152344 146.933594 211.246094 147.300781 211.3125 147.679688 C 211.363281 147.6875 211.410156 147.703125 211.464844 147.710938 C 211.417969 147.726562 211.371094 147.742188 211.324219 147.753906 C 211.351562 147.925781 211.378906 148.09375 211.394531 148.265625 C 211.683594 151.273438 210.136719 153.75 207.855469 154.148438 C 207.773438 154.160156 207.097656 154.378906 206.28125 154.640625 C 203.5 154.347656 201.089844 151.6875 200.78125 148.441406 C 200.449219 144.992188 202.609375 142.183594 205.605469 142.175781 C 205.730469 142.175781 205.855469 142.183594 205.980469 142.191406 C 205.992188 142.226562 206 142.261719 206.007812 142.292969 C 206.019531 142.292969 206.03125 142.289062 206.042969 142.289062 C 206.625 142.292969 207.199219 142.433594 207.738281 142.675781 C 207.460938 142 207.253906 141.285156 207.144531 140.542969 C 206.78125 138.058594 207.546875 135.898438 208.984375 134.726562 C 209.6875 134.507812 210.511719 134.25 211.242188 134.027344 C 208.980469 131.519531 206.050781 129.960938 202.976562 129.945312 C 198.945312 129.929688 195.664062 132.578125 194.085938 136.5625 C 195.644531 132.230469 199.101562 129.316406 203.390625 129.335938 C 206.457031 129.347656 209.382812 130.859375 211.679688 133.3125 Z M 207.8125 125.914062 L 208.820312 127.472656 C 208.722656 127.539062 208.613281 127.578125 208.488281 127.578125 C 208.0625 127.574219 207.679688 127.144531 207.628906 126.617188 C 207.601562 126.335938 207.675781 126.085938 207.8125 125.914062 Z M 208.304688 125.660156 C 208.726562 125.660156 209.113281 126.09375 209.164062 126.621094 C 209.1875 126.84375 209.140625 127.046875 209.054688 127.210938 L 208.082031 125.707031 C 208.152344 125.679688 208.226562 125.660156 208.304688 125.660156 Z M 212.664062 133.613281 C 212.847656 133.5625 212.976562 133.53125 213.042969 133.523438 C 213.214844 133.5 213.390625 133.492188 213.570312 133.492188 C 213.574219 133.492188 213.578125 133.492188 213.582031 133.492188 L 213.644531 134.105469 C 213.015625 135.609375 212.734375 137.390625 212.917969 139.308594 C 213.105469 141.257812 213.742188 143.070312 214.683594 144.589844 L 214.882812 146.625 C 213.234375 144.75 212.085938 142.1875 211.8125 139.363281 C 211.605469 137.230469 211.9375 135.253906 212.664062 133.613281 Z M 213.453125 132.1875 L 213.5625 133.296875 C 213.414062 133.109375 213.265625 132.917969 213.109375 132.734375 C 213.21875 132.546875 213.332031 132.363281 213.453125 132.1875 Z M 270.882812 153.933594 L 266.730469 112.078125 C 266.3125 107.863281 262.457031 104.109375 258.164062 103.734375 L 228.855469 101.195312 C 225.277344 100.882812 222.488281 103.015625 221.894531 106.175781 C 220.820312 108.339844 218.597656 112.8125 216.75 116.546875 L 216.746094 116.507812 L 216.636719 116.777344 C 215.660156 118.753906 214.800781 120.503906 214.292969 121.554688 C 212.457031 125.363281 212.914062 126.765625 212.914062 126.765625 C 212.914062 126.765625 213.089844 128.535156 213.339844 131.039062 C 213.027344 131.335938 212.738281 131.664062 212.46875 132.023438 C 211.714844 131.21875 210.890625 130.507812 210.023438 129.902344 C 210.078125 129.941406 210.132812 129.972656 210.183594 130.011719 L 209.667969 124.808594 L 183.316406 123.054688 L 189.199219 182.417969 L 215.234375 180.972656 L 212.894531 157.347656 C 212.875 157.363281 212.855469 157.375 212.839844 157.390625 C 214.628906 155.910156 216.019531 153.808594 216.855469 151.308594 C 216.953125 151.375 217.011719 151.410156 217.011719 151.410156 L 228.988281 158.382812 C 230.550781 159.9375 232.621094 161.007812 234.804688 161.199219 L 263.832031 160.921875 C 268.125 161.292969 271.296875 158.148438 270.882812 153.933594 Z M 149.894531 177.789062 C 149.894531 177.789062 149.890625 177.785156 149.886719 177.785156 C 149.882812 177.785156 149.875 177.78125 149.871094 177.78125 C 149.878906 177.785156 149.886719 177.785156 149.894531 177.789062 Z M 175.453125 86.882812 C 175.441406 86.882812 175.425781 86.882812 175.414062 86.882812 C 175.371094 86.878906 175.324219 86.878906 175.28125 86.878906 C 175.335938 86.878906 175.394531 86.878906 175.453125 86.882812 Z M 173.203125 196.402344 C 173.140625 195.257812 172.539062 194.382812 171.863281 194.449219 C 171.664062 194.46875 171.480469 194.570312 171.324219 194.726562 L 172.621094 198.328125 C 173.007812 197.949219 173.25 197.21875 173.203125 196.402344 Z M 170.746094 196.648438 C 170.808594 197.792969 171.410156 198.667969 172.089844 198.601562 C 172.199219 198.589844 172.304688 198.554688 172.402344 198.5 L 171.128906 194.96875 C 170.863281 195.378906 170.710938 195.984375 170.746094 196.648438 Z M 151.777344 186.695312 C 151.789062 186.695312 151.804688 186.695312 151.816406 186.695312 C 154.027344 186.472656 155.652344 183.175781 155.441406 179.324219 C 155.230469 175.46875 153.265625 172.527344 151.050781 172.746094 C 150.40625 172.808594 149.808594 173.136719 149.292969 173.664062 C 149.765625 173.234375 150.296875 172.96875 150.875 172.910156 C 153.0625 172.691406 155.011719 175.605469 155.21875 179.421875 C 155.421875 183.144531 153.890625 186.351562 151.777344 186.695312 Z M 149.523438 179.246094 C 149.523438 179.242188 149.523438 179.242188 149.523438 179.242188 C 149.519531 179.242188 149.515625 179.242188 149.515625 179.242188 C 149.515625 179.242188 149.519531 179.242188 149.523438 179.246094 Z M 149.84375 177.746094 C 149.855469 177.746094 149.875 177.746094 149.886719 177.75 C 149.882812 177.75 149.882812 177.746094 149.882812 177.746094 C 149.867188 177.746094 149.855469 177.746094 149.84375 177.746094 Z M 150.851562 176.609375 L 150.832031 176.609375 C 150.816406 176.609375 150.800781 176.609375 150.785156 176.609375 C 150.804688 176.609375 150.828125 176.609375 150.851562 176.609375 Z M 150.679688 176.742188 C 150.6875 176.742188 150.695312 176.746094 150.699219 176.746094 C 150.667969 176.738281 150.636719 176.734375 150.605469 176.730469 C 150.636719 176.730469 150.664062 176.734375 150.679688 176.742188 Z M 148.554688 180.109375 C 148.625 181.464844 149.1875 182.574219 149.917969 182.972656 C 149.253906 182.519531 148.75 181.460938 148.683594 180.1875 C 148.585938 178.414062 149.359375 176.890625 150.410156 176.789062 C 150.652344 176.765625 150.890625 176.820312 151.113281 176.941406 C 151.78125 177.390625 152.285156 178.449219 152.359375 179.730469 C 152.453125 181.503906 151.679688 183.023438 150.632812 183.128906 C 150.847656 183.105469 150.949219 183.117188 151.285156 183.085938 C 152.328125 182.980469 153.097656 181.46875 153 179.707031 C 152.910156 178.054688 152.089844 176.773438 151.128906 176.703125 C 151.0625 176.699219 150.558594 176.675781 150.3125 176.707031 C 150.320312 176.707031 150.339844 176.707031 150.355469 176.710938 C 150.332031 176.710938 150.304688 176.707031 150.28125 176.710938 C 149.230469 176.8125 148.457031 178.335938 148.554688 180.109375 Z M 152.113281 179.742188 C 152.199219 181.320312 151.550781 182.679688 150.652344 182.828125 C 150.660156 182.828125 150.664062 182.828125 150.671875 182.824219 C 151.609375 182.730469 152.296875 181.335938 152.207031 179.703125 C 152.117188 178.070312 151.285156 176.820312 150.347656 176.914062 C 150.074219 176.941406 149.820312 177.082031 149.601562 177.304688 C 149.804688 177.121094 150.027344 177.007812 150.273438 176.984375 C 151.203125 176.890625 152.023438 178.128906 152.113281 179.742188 Z M 206.339844 152.375 C 204.683594 152.367188 203.175781 150.683594 202.976562 148.609375 C 202.777344 146.539062 203.960938 144.867188 205.621094 144.875 C 207.28125 144.882812 208.789062 146.566406 208.988281 148.636719 C 209.1875 150.707031 208.003906 152.378906 206.339844 152.375 Z M 206.097656 142.867188 C 203.71875 142.859375 202.019531 145.257812 202.304688 148.226562 C 202.589844 151.199219 204.753906 153.613281 207.132812 153.625 C 209.515625 153.636719 211.214844 151.234375 210.929688 148.265625 C 210.644531 145.292969 208.480469 142.878906 206.097656 142.867188 Z M 165.132812 107.292969 C 164.425781 94.320312 157.804688 84.398438 150.347656 85.140625 C 148.171875 85.355469 146.164062 86.460938 144.429688 88.238281 C 146.019531 86.785156 147.816406 85.882812 149.753906 85.691406 C 157.132812 84.960938 163.683594 94.777344 164.386719 107.621094 C 165.074219 120.171875 159.917969 130.960938 152.792969 132.132812 C 152.835938 132.125 152.878906 132.128906 152.917969 132.125 C 160.375 131.386719 165.84375 120.269531 165.132812 107.292969 Z M 174.042969 92.511719 C 174.050781 92.515625 174.0625 92.515625 174.066406 92.515625 C 174.070312 92.515625 174.074219 92.519531 174.074219 92.519531 C 174.066406 92.515625 174.054688 92.515625 174.042969 92.511719 Z M 174.019531 98.445312 C 174.222656 98.425781 174.3125 98.4375 174.625 98.40625 C 175.59375 98.3125 176.308594 96.90625 176.21875 95.269531 C 176.136719 93.738281 175.375 92.542969 174.480469 92.484375 C 174.421875 92.476562 173.949219 92.457031 173.722656 92.484375 C 173.722656 92.484375 173.730469 92.484375 173.734375 92.484375 C 173.71875 92.484375 173.707031 92.484375 173.691406 92.488281 C 172.71875 92.585938 172 93.996094 172.089844 95.640625 C 172.160156 96.902344 172.679688 97.933594 173.359375 98.304688 C 172.742188 97.882812 172.273438 96.898438 172.210938 95.714844 C 172.121094 94.070312 172.839844 92.660156 173.8125 92.5625 C 174.039062 92.539062 174.257812 92.589844 174.460938 92.699219 C 175.085938 93.117188 175.554688 94.101562 175.621094 95.292969 C 175.710938 96.9375 174.996094 98.351562 174.019531 98.445312 Z M 149.449219 98.152344 C 149.523438 98.152344 149.597656 98.152344 149.671875 98.160156 C 149.652344 98.15625 149.636719 98.15625 149.621094 98.15625 C 149.566406 98.152344 149.507812 98.152344 149.449219 98.152344 Z M 202.589844 139.769531 C 201.292969 139.761719 200.113281 138.445312 199.957031 136.824219 C 199.800781 135.207031 200.726562 133.898438 202.023438 133.90625 C 203.324219 133.910156 204.503906 135.226562 204.660156 136.847656 C 204.8125 138.464844 203.886719 139.773438 202.589844 139.769531 Z M 202.398438 132.335938 C 200.539062 132.328125 199.207031 134.203125 199.429688 136.527344 C 199.65625 138.847656 201.347656 140.738281 203.210938 140.746094 C 205.074219 140.753906 206.402344 138.878906 206.175781 136.558594 C 205.953125 134.234375 204.261719 132.34375 202.398438 132.335938 Z M 205.855469 168.363281 L 197.832031 168.027344 C 197.832031 168.027344 195.472656 167.574219 197.210938 169.554688 C 198.949219 171.53125 201.757812 174.851562 201.757812 174.851562 C 201.757812 174.851562 202.351562 175.464844 202.710938 175.421875 C 203.074219 175.375 203.402344 174.734375 203.402344 174.734375 C 203.402344 174.734375 205.960938 170.519531 206.488281 169.636719 C 207.292969 168.296875 205.855469 168.363281 205.855469 168.363281 Z M 226.441406 133.730469 L 227.554688 144.964844 C 228.300781 143.390625 228.644531 141.460938 228.445312 139.378906 C 228.238281 137.273438 227.511719 135.320312 226.441406 133.730469 Z M 145.058594 112.46875 C 145.238281 112.453125 145.316406 112.460938 145.59375 112.433594 C 146.449219 112.351562 147.082031 111.109375 147.003906 109.664062 C 146.929688 108.308594 146.257812 107.25 145.464844 107.195312 C 145.414062 107.191406 145 107.175781 144.796875 107.199219 C 144.796875 107.199219 144.800781 107.199219 144.808594 107.199219 C 144.792969 107.199219 144.78125 107.199219 144.769531 107.199219 C 143.90625 107.289062 143.269531 108.535156 143.351562 109.992188 C 143.410156 111.105469 143.875 112.015625 144.472656 112.34375 C 143.925781 111.96875 143.515625 111.101562 143.457031 110.058594 C 143.378906 108.601562 144.011719 107.351562 144.875 107.265625 C 145.074219 107.246094 145.269531 107.292969 145.449219 107.390625 C 146 107.757812 146.417969 108.628906 146.472656 109.679688 C 146.554688 111.136719 145.917969 112.386719 145.058594 112.46875 Z M 180.953125 67.207031 C 180.800781 67.199219 180.652344 67.199219 180.503906 67.199219 C 180.695312 67.199219 180.886719 67.199219 181.082031 67.214844 C 181.039062 67.210938 180.988281 67.210938 180.953125 67.207031 Z M 173.214844 71.492188 C 174.992188 69.871094 177.003906 68.859375 179.167969 68.644531 C 187.425781 67.824219 194.761719 78.8125 195.546875 93.1875 C 196.3125 107.234375 190.546875 119.308594 182.574219 120.613281 C 182.621094 120.609375 182.667969 120.609375 182.714844 120.609375 C 191.058594 119.78125 197.179688 107.335938 196.382812 92.816406 C 195.589844 78.300781 188.183594 67.199219 179.839844 68.027344 C 177.402344 68.265625 175.15625 69.503906 173.214844 71.492188 Z M 179.078125 82.597656 C 179.058594 82.59375 179.039062 82.59375 179.023438 82.589844 C 178.960938 82.589844 178.894531 82.589844 178.832031 82.589844 C 178.914062 82.589844 178.996094 82.589844 179.078125 82.597656 Z M 149.015625 98.578125 C 149.050781 98.585938 149.082031 98.589844 149.105469 98.59375 C 149.121094 98.601562 149.132812 98.605469 149.148438 98.609375 C 149.105469 98.597656 149.0625 98.589844 149.015625 98.578125 Z M 146.429688 102.117188 C 146.4375 102.121094 146.445312 102.125 146.457031 102.125 C 146.425781 102.117188 146.398438 102.113281 146.371094 102.105469 C 146.394531 102.109375 146.414062 102.113281 146.429688 102.117188 Z M 151.132812 119.96875 C 154.648438 119.617188 157.238281 114.523438 156.914062 108.589844 C 156.609375 103.027344 153.851562 98.699219 150.609375 98.464844 C 150.398438 98.449219 148.695312 98.382812 147.859375 98.480469 C 147.867188 98.480469 147.886719 98.484375 147.898438 98.484375 C 147.847656 98.488281 147.800781 98.488281 147.75 98.492188 C 145.359375 98.730469 143.402344 101.144531 142.476562 104.523438 C 141.738281 105.96875 141.332031 107.90625 141.445312 109.996094 C 141.558594 112.101562 142.179688 113.945312 143.078125 115.226562 C 143.914062 117.265625 145.128906 118.820312 146.539062 119.589844 C 145.4375 118.839844 144.480469 117.601562 143.753906 116.03125 C 144.035156 116.308594 144.332031 116.53125 144.644531 116.703125 C 144.277344 116.453125 143.933594 116.121094 143.617188 115.726562 C 143.597656 115.675781 143.574219 115.632812 143.550781 115.582031 C 143.375 115.375 143.210938 115.136719 143.050781 114.890625 C 142.332031 113.652344 141.851562 112.011719 141.75 110.183594 C 141.523438 106.035156 143.335938 102.472656 145.792969 102.230469 C 146.359375 102.171875 146.910156 102.300781 147.429688 102.578125 C 149 103.632812 150.1875 106.113281 150.351562 109.117188 C 150.578125 113.261719 148.769531 116.824219 146.308594 117.066406 C 146.820312 117.015625 147.050781 117.042969 147.839844 116.964844 C 150.28125 116.722656 152.082031 113.183594 151.855469 109.0625 C 151.640625 105.195312 149.726562 102.1875 147.476562 102.027344 C 147.328125 102.015625 146.144531 101.96875 145.5625 102.035156 C 145.570312 102.039062 145.582031 102.039062 145.589844 102.039062 C 145.554688 102.039062 145.523438 102.039062 145.488281 102.042969 C 144.757812 102.117188 144.089844 102.488281 143.511719 103.070312 C 144.558594 100.613281 146.226562 98.953125 148.1875 98.757812 C 149 98.679688 149.789062 98.859375 150.53125 99.253906 C 152.800781 100.765625 154.511719 104.34375 154.75 108.667969 C 155.074219 114.636719 152.46875 119.761719 148.929688 120.113281 C 149.667969 120.042969 150 120.078125 151.132812 119.96875 Z M 171.28125 121.058594 L 173.386719 123.5 C 173.386719 123.5 174 124.109375 173.140625 124.480469 C 172.28125 124.847656 169.703125 125.941406 169.703125 125.941406 C 169.703125 125.941406 168.96875 126.261719 169.339844 125.152344 C 169.714844 124.042969 170.644531 121.273438 170.644531 121.273438 C 170.644531 121.273438 170.742188 120.476562 171.28125 121.058594 Z M 169.382812 119.828125 C 169.382812 119.828125 168.011719 124.222656 167.398438 126.035156 C 166.789062 127.851562 167.992188 127.328125 167.992188 127.328125 C 167.992188 127.328125 172.210938 125.539062 173.617188 124.9375 C 175.019531 124.335938 174.015625 123.335938 174.015625 123.335938 L 170.574219 119.339844 C 169.6875 118.386719 169.382812 119.828125 169.382812 119.828125 Z M 149.015625 119.097656 C 149.03125 119.097656 149.050781 119.097656 149.066406 119.09375 C 152.226562 118.78125 154.542969 114.070312 154.242188 108.570312 C 153.941406 103.070312 151.136719 98.871094 147.976562 99.179688 C 147.054688 99.273438 146.203125 99.742188 145.46875 100.496094 C 146.140625 99.878906 146.902344 99.496094 147.722656 99.417969 C 150.851562 99.105469 153.628906 103.269531 153.925781 108.710938 C 154.214844 114.03125 152.03125 118.601562 149.015625 119.097656 Z M 143.878906 142.375 C 143.882812 142.378906 143.886719 142.378906 143.890625 142.378906 C 143.878906 142.378906 143.863281 142.375 143.847656 142.371094 C 143.859375 142.371094 143.867188 142.375 143.878906 142.375 Z M 131.378906 150.097656 L 141.089844 146.476562 C 141.089844 146.574219 141.089844 146.675781 141.097656 146.777344 C 141.101562 146.945312 141.121094 147.109375 141.140625 147.269531 Z M 133.074219 154.582031 C 131.546875 154.734375 130.144531 153.207031 129.941406 151.171875 C 129.917969 150.90625 129.914062 150.652344 129.929688 150.398438 C 129.441406 150.21875 128.277344 149.847656 127.160156 149.917969 C 127.691406 149.558594 129.410156 149.5 130.074219 149.496094 C 130.085938 149.453125 130.09375 149.410156 130.109375 149.371094 C 129.683594 149.179688 128.652344 148.835938 126.671875 148.875 C 127.648438 148.421875 129.785156 148.394531 130.554688 148.402344 C 130.570312 148.371094 130.589844 148.34375 130.609375 148.316406 C 130.085938 148.121094 128.691406 147.664062 127.109375 147.738281 C 128.890625 147.167969 130.550781 147.554688 131.144531 147.730469 C 131.492188 147.445312 131.898438 147.257812 132.34375 147.214844 C 132.613281 147.191406 132.875 147.222656 133.128906 147.292969 C 132.875 147.382812 132.722656 147.4375 132.703125 147.441406 C 131.34375 147.777344 130.417969 149.140625 130.597656 150.984375 C 130.785156 152.941406 132.105469 154.269531 133.644531 154.4375 C 133.464844 154.511719 133.273438 154.5625 133.074219 154.582031 Z M 141.132812 145.609375 C 141.101562 145.871094 141.085938 146.136719 141.085938 146.414062 L 130.996094 149.496094 Z M 144.484375 140.847656 C 144.246094 140.855469 144.074219 140.867188 143.988281 140.875 C 142.519531 141.019531 141.4375 142.75 141.226562 145.015625 C 141.1875 145.195312 141.160156 145.378906 141.136719 145.566406 L 131.5625 148.730469 L 141.1875 144.984375 C 141.210938 144.761719 141.242188 144.539062 141.28125 144.324219 C 138.703125 145.257812 135.070312 146.589844 133.488281 147.160156 C 132.289062 146.421875 130.742188 146.121094 129.214844 146.273438 C 126.195312 146.574219 124.464844 149.042969 124.777344 152.203125 C 125.089844 155.355469 127.667969 157.828125 130.6875 157.527344 C 132.519531 157.347656 134.066406 155.992188 134.9375 154.25 C 136.535156 153.753906 140.871094 152.355469 143.488281 151.511719 C 143.601562 151.59375 143.71875 151.671875 143.835938 151.734375 C 143.730469 151.664062 143.628906 151.585938 143.527344 151.5 C 143.535156 151.5 143.539062 151.496094 143.546875 151.496094 C 143.472656 151.445312 143.40625 151.382812 143.339844 151.324219 C 143.035156 151.03125 142.753906 150.671875 142.503906 150.253906 C 142.628906 150.359375 142.753906 150.449219 142.882812 150.523438 C 142.472656 150.242188 142.113281 149.785156 141.839844 149.210938 C 141.632812 148.738281 141.476562 148.214844 141.359375 147.667969 C 141.316406 147.414062 141.28125 147.152344 141.265625 146.878906 C 141.136719 144.5625 142.148438 142.574219 143.519531 142.4375 C 143.839844 142.40625 144.144531 142.480469 144.433594 142.632812 C 145.3125 143.222656 145.976562 144.609375 146.066406 146.285156 C 146.195312 148.601562 145.183594 150.589844 143.8125 150.722656 C 144.097656 150.695312 144.226562 150.710938 144.664062 150.667969 C 146.027344 150.53125 147.03125 148.554688 146.90625 146.253906 C 146.789062 144.097656 145.71875 142.414062 144.460938 142.324219 C 144.378906 142.320312 143.71875 142.292969 143.394531 142.332031 C 143.398438 142.332031 143.402344 142.332031 143.402344 142.332031 C 143.390625 142.335938 143.371094 142.335938 143.351562 142.335938 C 142.738281 142.398438 142.199219 142.828125 141.796875 143.492188 C 142.269531 142.085938 143.140625 141.117188 144.222656 141.011719 C 144.613281 140.972656 145 141.058594 145.371094 141.230469 C 145.410156 141.253906 145.457031 141.273438 145.496094 141.296875 C 146.6875 142.09375 147.632812 143.914062 147.851562 146.109375 C 148.15625 149.183594 146.917969 151.820312 145.089844 152.003906 C 145.148438 152 145.328125 151.988281 145.585938 151.980469 L 147.851562 174.816406 C 147.140625 176.242188 146.761719 178.136719 146.871094 180.171875 C 147.003906 182.605469 147.8125 184.695312 148.957031 185.957031 L 149.351562 189.972656 L 149.074219 186.082031 C 149.382812 186.402344 149.710938 186.664062 150.058594 186.851562 C 148.507812 185.792969 147.335938 183.328125 147.171875 180.355469 C 146.949219 176.222656 148.75 172.675781 151.203125 172.433594 C 151.714844 172.382812 152.210938 172.488281 152.683594 172.714844 C 154.292969 173.707031 155.523438 176.269531 155.695312 179.378906 C 155.773438 180.824219 155.609375 182.191406 155.261719 183.378906 C 154.589844 185.539062 153.289062 187.058594 151.714844 187.214844 C 152.226562 187.164062 154.535156 187.105469 155.320312 187.027344 C 157.75 186.789062 159.550781 183.3125 159.328125 179.203125 C 159.113281 175.351562 157.210938 172.40625 154.96875 172.246094 C 154.820312 172.234375 151.246094 172.238281 151.210938 172.238281 C 151.105469 172.238281 151.003906 172.238281 150.894531 172.25 C 149.847656 172.355469 148.921875 173.066406 148.21875 174.167969 L 146.621094 151.945312 C 148.402344 151.890625 151.121094 151.8125 151.523438 151.773438 C 153.34375 151.59375 154.574219 148.96875 154.269531 145.914062 C 153.988281 143.050781 152.457031 140.824219 150.769531 140.703125 C 150.691406 140.699219 147.820312 140.75 145.820312 140.804688 L 145.722656 139.433594 L 183.316406 123.054688 L 144.25 138.5 Z M 174.847656 158.394531 C 174.824219 158.390625 174.796875 158.394531 174.777344 158.390625 C 174.804688 158.394531 174.835938 158.394531 174.867188 158.394531 C 174.867188 158.394531 174.855469 158.394531 174.847656 158.394531 Z M 171.277344 156.832031 C 171.292969 156.832031 171.308594 156.832031 171.328125 156.832031 C 174.277344 156.539062 176.445312 152.136719 176.164062 147 C 175.882812 141.863281 173.261719 137.941406 170.308594 138.230469 C 169.445312 138.316406 168.652344 138.753906 167.96875 139.457031 C 168.597656 138.882812 169.308594 138.527344 170.074219 138.449219 C 172.996094 138.160156 175.585938 142.046875 175.867188 147.132812 C 176.136719 152.101562 174.097656 156.371094 171.277344 156.832031 Z M 178.800781 188.410156 C 178.789062 188.410156 178.773438 188.410156 178.765625 188.410156 C 178.726562 188.40625 178.6875 188.410156 178.648438 188.40625 C 178.699219 188.410156 178.75 188.410156 178.800781 188.410156 Z M 174.351562 161.375 C 174.320312 161.371094 174.070312 161.359375 173.945312 161.375 L 173.949219 161.375 C 173.945312 161.375 173.9375 161.375 173.929688 161.375 C 173.410156 161.429688 173.027344 162.179688 173.078125 163.054688 C 173.113281 163.726562 173.390625 164.273438 173.753906 164.46875 C 173.425781 164.246094 173.175781 163.722656 173.140625 163.09375 C 173.09375 162.21875 173.476562 161.46875 173.992188 161.414062 C 174.113281 161.402344 174.230469 161.429688 174.339844 161.488281 C 174.671875 161.710938 174.921875 162.234375 174.957031 162.867188 C 175.003906 163.742188 174.621094 164.496094 174.105469 164.546875 C 174.210938 164.535156 174.261719 164.542969 174.425781 164.527344 C 174.941406 164.472656 175.320312 163.726562 175.273438 162.859375 C 175.230469 162.042969 174.824219 161.40625 174.351562 161.375 Z M 174.832031 158.464844 C 174.84375 158.464844 174.855469 158.46875 174.867188 158.46875 C 174.871094 158.46875 174.875 158.472656 174.878906 158.472656 C 174.867188 158.46875 174.851562 158.46875 174.832031 158.464844 Z M 175.488281 158.417969 C 175.398438 158.410156 174.691406 158.382812 174.351562 158.421875 C 174.355469 158.421875 174.363281 158.421875 174.367188 158.421875 C 174.347656 158.425781 174.324219 158.425781 174.304688 158.425781 C 172.839844 158.570312 171.765625 160.691406 171.898438 163.164062 C 172 165.050781 172.785156 166.597656 173.800781 167.15625 C 172.875 166.519531 172.175781 165.046875 172.082031 163.273438 C 171.941406 160.800781 173.019531 158.683594 174.488281 158.535156 C 174.824219 158.503906 175.152344 158.582031 175.460938 158.746094 C 176.398438 159.371094 177.101562 160.847656 177.199219 162.636719 C 177.335938 165.105469 176.257812 167.226562 174.792969 167.375 C 175.097656 167.339844 175.238281 167.359375 175.703125 167.3125 C 177.160156 167.167969 178.230469 165.058594 178.09375 162.605469 C 177.96875 160.300781 176.828125 158.511719 175.488281 158.417969 Z M 171.285156 137.671875 C 171.3125 137.671875 171.34375 137.679688 171.359375 137.683594 C 171.375 137.6875 171.386719 137.691406 171.398438 137.695312 C 171.359375 137.6875 171.324219 137.679688 171.285156 137.671875 Z M 168.863281 140.972656 C 168.871094 140.972656 168.878906 140.976562 168.886719 140.980469 C 168.863281 140.972656 168.835938 140.96875 168.808594 140.960938 C 168.832031 140.96875 168.851562 140.96875 168.863281 140.972656 Z M 172.769531 137.5625 C 172.570312 137.546875 170.976562 137.484375 170.195312 137.578125 C 170.207031 137.578125 170.222656 137.578125 170.238281 137.582031 C 170.1875 137.582031 170.140625 137.582031 170.097656 137.585938 C 167.867188 137.808594 166.035156 140.0625 165.175781 143.21875 C 164.480469 144.566406 164.101562 146.378906 164.210938 148.335938 C 164.316406 150.308594 164.902344 152.039062 165.746094 153.234375 C 166.527344 155.128906 167.65625 156.578125 168.964844 157.296875 C 167.9375 156.59375 167.039062 155.433594 166.363281 153.964844 C 166.625 154.222656 166.90625 154.4375 167.199219 154.597656 C 165.742188 153.601562 164.648438 151.292969 164.496094 148.503906 C 164.28125 144.632812 165.972656 141.304688 168.269531 141.078125 C 168.796875 141.023438 169.3125 141.144531 169.796875 141.40625 C 171.265625 142.386719 172.371094 144.707031 172.527344 147.507812 C 172.738281 151.382812 171.046875 154.707031 168.753906 154.9375 C 169.230469 154.890625 169.445312 154.914062 170.179688 154.84375 C 172.460938 154.613281 174.144531 151.308594 173.929688 147.457031 C 173.734375 143.847656 171.941406 141.039062 169.839844 140.886719 C 169.703125 140.878906 168.59375 140.832031 168.050781 140.898438 C 168.0625 140.898438 168.070312 140.898438 168.082031 140.902344 C 168.050781 140.902344 168.015625 140.902344 167.984375 140.902344 C 167.304688 140.972656 166.675781 141.316406 166.136719 141.863281 C 167.117188 139.570312 168.675781 138.015625 170.507812 137.835938 C 171.261719 137.761719 172 137.929688 172.691406 138.296875 C 174.8125 139.707031 176.410156 143.050781 176.632812 147.09375 C 176.9375 152.667969 174.507812 157.457031 171.199219 157.78125 C 171.890625 157.714844 172.199219 157.753906 173.253906 157.648438 C 176.542969 157.320312 178.960938 152.5625 178.65625 147.019531 C 178.371094 141.824219 175.796875 137.78125 172.769531 137.5625 Z M 143.164062 148.074219 C 143.265625 148.066406 143.3125 148.070312 143.464844 148.054688 C 143.949219 148.007812 144.304688 147.308594 144.261719 146.488281 C 144.21875 145.722656 143.839844 145.128906 143.394531 145.097656 C 143.363281 145.097656 143.128906 145.085938 143.015625 145.101562 C 143.015625 145.101562 143.019531 145.101562 143.023438 145.101562 C 143.023438 145.101562 143.007812 145.101562 143 145.101562 C 142.515625 145.148438 142.15625 145.855469 142.199219 146.675781 C 142.234375 147.304688 142.496094 147.816406 142.832031 148.003906 C 142.527344 147.792969 142.292969 147.300781 142.257812 146.714844 C 142.214844 145.890625 142.574219 145.1875 143.0625 145.140625 C 143.171875 145.128906 143.28125 145.152344 143.382812 145.207031 C 143.695312 145.417969 143.929688 145.90625 143.964844 146.5 C 144.007812 147.320312 143.648438 148.027344 143.164062 148.074219 Z M 183.753906 225.472656 L 169.070312 226.078125 L 183.582031 224.164062 L 168.582031 224.988281 L 179.636719 223.132812 L 169.019531 223.660156 L 176.792969 222.179688 L 169.480469 222.492188 C 168.464844 223.339844 167.867188 224.851562 168.03125 226.5 C 168.179688 228.019531 168.941406 229.292969 169.96875 229.980469 L 171.539062 226.722656 L 180.492188 225.929688 Z M 167.667969 150.503906 C 167.835938 150.488281 167.914062 150.5 168.175781 150.472656 C 168.980469 150.394531 169.578125 149.21875 169.503906 147.855469 C 169.433594 146.574219 168.800781 145.578125 168.050781 145.527344 C 168.003906 145.519531 167.613281 145.507812 167.421875 145.53125 C 167.421875 145.53125 167.429688 145.53125 167.429688 145.53125 C 167.417969 145.53125 167.410156 145.53125 167.394531 145.53125 C 166.582031 145.613281 165.984375 146.792969 166.058594 148.164062 C 166.113281 149.21875 166.550781 150.074219 167.117188 150.386719 C 166.601562 150.03125 166.210938 149.214844 166.15625 148.226562 C 166.082031 146.851562 166.683594 145.671875 167.496094 145.59375 C 167.683594 145.574219 167.867188 145.617188 168.039062 145.707031 C 168.5625 146.058594 168.953125 146.878906 169.007812 147.871094 C 169.082031 149.246094 168.480469 150.425781 167.667969 150.503906 Z M 168.867188 140.855469 C 168.855469 140.855469 168.839844 140.851562 168.832031 140.851562 C 168.796875 140.847656 168.757812 140.847656 168.722656 140.847656 C 168.769531 140.847656 168.816406 140.847656 168.867188 140.855469 Z M 158.90625 172.179688 L 155.945312 142.308594 L 178.195312 133.511719 L 181.546875 167.320312 Z M 155.417969 141.691406 L 158.652344 174.3125 L 183.90625 169.523438 L 180.175781 131.902344 Z M 143.878906 142.304688 C 143.878906 142.304688 143.867188 142.304688 143.859375 142.304688 C 143.835938 142.304688 143.816406 142.304688 143.792969 142.304688 C 143.824219 142.304688 143.851562 142.304688 143.878906 142.304688 Z M 162.914062 162.789062 C 162.824219 161.136719 161.957031 159.875 160.976562 159.972656 C 159.996094 160.066406 159.28125 161.488281 159.367188 163.140625 C 159.460938 164.796875 160.328125 166.058594 161.304688 165.960938 C 162.285156 165.863281 163.007812 164.445312 162.914062 162.789062 Z M 171.84375 137.273438 C 171.792969 137.269531 171.738281 137.269531 171.683594 137.269531 C 171.753906 137.273438 171.824219 137.273438 171.894531 137.277344 C 171.878906 137.273438 171.859375 137.273438 171.84375 137.273438 Z M 185.582031 218.238281 C 180.515625 218.742188 175.925781 219.300781 172.527344 219.804688 C 172.574219 219.257812 178.347656 218.25 185.511719 217.542969 C 192.679688 216.832031 198.539062 216.6875 198.691406 217.210938 C 195.261719 217.382812 190.648438 217.738281 185.582031 218.238281 Z M 189.113281 227.863281 C 187.863281 227.988281 186.722656 226.902344 186.46875 225.40625 C 186.703125 226.691406 187.6875 227.617188 188.765625 227.507812 C 189.914062 227.398438 190.730469 226.152344 190.589844 224.730469 C 190.445312 223.308594 189.402344 222.25 188.253906 222.363281 C 187.179688 222.472656 186.394531 223.574219 186.414062 224.878906 C 186.375 223.359375 187.277344 222.074219 188.527344 221.953125 C 189.84375 221.820312 191.046875 223.039062 191.207031 224.671875 C 191.371094 226.304688 190.429688 227.734375 189.113281 227.863281 Z M 176 213.339844 L 174.027344 217.429688 C 173.816406 217.460938 173.613281 217.496094 173.417969 217.53125 Z M 174.9375 217.28125 C 174.632812 217.328125 174.351562 217.375 174.082031 217.421875 L 176.746094 213.09375 Z M 176.039062 217.117188 C 175.6875 217.167969 175.34375 217.21875 175.019531 217.269531 L 177.660156 212.828125 Z M 177.320312 216.933594 C 176.910156 216.988281 176.515625 217.046875 176.140625 217.101562 L 178.53125 212.777344 Z M 178.582031 216.761719 C 178.1875 216.816406 177.800781 216.867188 177.429688 216.921875 L 179.390625 212.65625 Z M 180.042969 216.574219 C 179.59375 216.632812 179.152344 216.6875 178.726562 216.742188 L 180.296875 212.636719 Z M 181.40625 216.40625 C 181.003906 216.453125 180.617188 216.503906 180.234375 216.550781 L 181.257812 212.472656 Z M 182.34375 212.375 L 182.851562 216.230469 C 182.445312 216.277344 182.050781 216.328125 181.660156 216.375 Z M 183.820312 212.253906 L 184.4375 216.046875 C 184.003906 216.097656 183.574219 216.144531 183.15625 216.195312 Z M 185.285156 212.058594 L 185.992188 215.875 C 185.566406 215.921875 185.152344 215.96875 184.742188 216.011719 Z M 186.914062 211.921875 L 187.75 215.683594 C 187.269531 215.734375 186.796875 215.785156 186.328125 215.835938 Z M 188.496094 211.800781 L 189.582031 215.492188 C 189.078125 215.542969 188.578125 215.59375 188.085938 215.648438 Z M 183.796875 229.738281 C 185.171875 229.652344 186.359375 229.570312 187.144531 229.515625 C 186.359375 229.570312 185.167969 229.652344 183.796875 229.738281 Z M 178.5625 188.546875 C 178.570312 188.550781 178.578125 188.554688 178.585938 188.554688 C 178.558594 188.546875 178.53125 188.542969 178.503906 188.539062 C 178.523438 188.542969 178.546875 188.542969 178.5625 188.546875 Z M 172.410156 192.320312 C 172.414062 192.324219 172.417969 192.324219 172.425781 192.324219 C 172.410156 192.320312 172.394531 192.320312 172.378906 192.316406 C 172.386719 192.316406 172.402344 192.320312 172.410156 192.320312 Z M 170.125 198.519531 C 170.125 198.519531 170.125 198.519531 170.125 198.515625 L 170.113281 198.523438 C 170.066406 198.386719 170.027344 198.246094 169.992188 198.101562 L 170 198.097656 C 169.996094 198.09375 169.996094 198.089844 169.996094 198.082031 L 169.988281 198.085938 C 169.933594 197.863281 169.886719 197.632812 169.855469 197.394531 C 169.921875 197.785156 170.011719 198.164062 170.125 198.519531 Z M 170.210938 198.777344 C 170.175781 198.699219 170.144531 198.621094 170.117188 198.539062 L 170.128906 198.527344 C 170.152344 198.613281 170.179688 198.695312 170.210938 198.777344 Z M 153.320312 209.980469 L 170.011719 198.609375 C 170.066406 198.761719 170.128906 198.910156 170.195312 199.050781 Z M 155.015625 212.414062 C 154.257812 212.929688 153.078125 212.53125 152.390625 211.515625 C 151.699219 210.5 151.757812 209.261719 152.519531 208.742188 C 152.722656 208.601562 152.960938 208.535156 153.207031 208.523438 C 152.96875 208.683594 152.832031 208.777344 152.820312 208.785156 C 152.113281 209.265625 152.0625 210.417969 152.699219 211.355469 C 153.339844 212.296875 154.429688 212.667969 155.136719 212.1875 C 155.136719 212.1875 155.222656 212.128906 155.363281 212.035156 C 155.273438 212.183594 155.160156 212.3125 155.015625 212.414062 Z M 169.875 198.183594 C 169.914062 198.324219 169.953125 198.464844 170.003906 198.59375 L 153.394531 209.488281 Z M 169.796875 197.894531 C 169.816406 197.984375 169.84375 198.074219 169.867188 198.164062 L 153.550781 208.988281 Z M 140.566406 217.148438 L 150.863281 210.691406 C 150.902344 210.902344 150.960938 211.109375 151.039062 211.320312 Z M 150.808594 209.976562 C 150.796875 210.203125 150.816406 210.4375 150.859375 210.675781 L 140.953125 216.222656 Z M 215.65625 221.519531 C 215.441406 219.328125 213.847656 217.640625 211.921875 217.375 L 211.605469 214.183594 L 211.585938 214.183594 C 211.59375 214.171875 211.605469 214.160156 211.601562 214.152344 C 211.59375 214.039062 211.039062 213.984375 210.050781 213.984375 C 209.457031 213.222656 206.648438 209.949219 206.640625 209.863281 C 206.621094 209.699219 201.96875 209.554688 195.609375 209.957031 L 195.023438 203.890625 C 195.296875 203.863281 195.492188 203.84375 195.585938 203.832031 C 198.777344 203.515625 200.972656 199.292969 200.441406 193.929688 C 200.070312 190.226562 198.527344 187.226562 196.550781 185.8125 L 215.359375 182.21875 L 189.324219 183.660156 L 149.476562 191.214844 L 175.007812 189.546875 C 174.859375 189.90625 174.722656 190.28125 174.609375 190.679688 C 173.660156 190.738281 172.792969 190.792969 172.519531 190.820312 C 171.039062 190.964844 169.953125 192.714844 169.746094 195.007812 C 169.640625 195.539062 169.59375 196.117188 169.628906 196.71875 C 169.644531 197.007812 169.683594 197.285156 169.730469 197.550781 C 165.515625 200.324219 156.503906 206.328125 153.683594 208.207031 C 152.96875 207.910156 152.222656 207.917969 151.652344 208.308594 C 151.269531 208.566406 151.019531 208.957031 150.894531 209.417969 C 148.449219 210.742188 140.960938 215.058594 140.785156 215.175781 C 139.574219 216 139.480469 217.976562 140.582031 219.585938 C 141.496094 220.929688 142.941406 221.59375 144.101562 221.304688 C 144.421875 221.246094 144.773438 221.125 145.132812 220.90625 C 145.28125 220.8125 145.410156 220.710938 145.527344 220.605469 C 145.695312 220.449219 151.765625 215.378906 153.84375 213.683594 C 154.300781 213.726562 154.734375 213.632812 155.105469 213.382812 C 155.648438 213.015625 155.925781 212.378906 155.941406 211.65625 C 158.808594 209.773438 168.570312 203.359375 171.78125 201.269531 C 171.96875 201.433594 172.164062 201.574219 172.367188 201.679688 C 171.867188 201.347656 171.40625 200.835938 171.027344 200.1875 C 171.152344 200.296875 171.28125 200.390625 171.414062 200.464844 C 171.242188 200.347656 171.085938 200.195312 170.933594 200.023438 C 170.453125 199.148438 170.113281 198.054688 169.996094 196.847656 C 169.914062 196.046875 169.941406 195.277344 170.054688 194.570312 C 170.429688 193.34375 171.164062 192.472656 172.054688 192.382812 C 172.371094 192.351562 172.679688 192.425781 172.964844 192.578125 C 173.847656 193.167969 174.507812 194.550781 174.597656 196.226562 C 174.726562 198.546875 173.714844 200.535156 172.34375 200.667969 C 172.628906 200.640625 172.757812 200.65625 173.195312 200.609375 C 174.5625 200.476562 175.566406 198.5 175.441406 196.199219 C 175.320312 194.039062 174.253906 192.359375 172.996094 192.269531 C 172.910156 192.265625 172.25 192.238281 171.925781 192.277344 C 171.929688 192.277344 171.9375 192.277344 171.9375 192.277344 C 171.921875 192.277344 171.90625 192.277344 171.882812 192.28125 C 171.273438 192.339844 170.730469 192.773438 170.332031 193.4375 C 170.804688 192.03125 171.671875 191.0625 172.753906 190.953125 C 173.179688 190.914062 173.59375 191.007812 173.984375 191.214844 C 175.199219 191.996094 176.164062 193.832031 176.382812 196.054688 C 176.6875 199.128906 175.453125 201.765625 173.625 201.949219 C 173.804688 201.929688 174.761719 201.859375 175.785156 201.78125 C 176.582031 203.246094 177.601562 204.363281 178.722656 204.960938 C 177.789062 204.347656 176.941406 203.363281 176.253906 202.128906 C 176.578125 202.449219 176.921875 202.707031 177.28125 202.890625 C 176.847656 202.617188 176.441406 202.230469 176.074219 201.757812 C 177.117188 201.679688 178.15625 201.601562 178.441406 201.574219 C 180.257812 201.394531 181.484375 198.769531 181.183594 195.714844 C 180.898438 192.851562 179.371094 190.625 177.683594 190.503906 C 177.628906 190.5 176.542969 190.5625 175.378906 190.632812 C 176.03125 189.535156 176.917969 188.8125 177.9375 188.675781 C 178.492188 188.605469 179.039062 188.710938 179.554688 188.96875 C 181.128906 189.949219 182.367188 192.339844 182.625 195.273438 C 182.980469 199.328125 181.324219 202.875 178.921875 203.195312 C 179.421875 203.125 179.648438 203.144531 180.414062 203.042969 C 182.800781 202.730469 184.449219 199.207031 184.097656 195.171875 C 183.765625 191.394531 181.792969 188.511719 179.582031 188.425781 C 179.433594 188.417969 178.277344 188.410156 177.707031 188.496094 C 177.714844 188.5 177.726562 188.496094 177.738281 188.496094 C 177.703125 188.5 177.667969 188.5 177.636719 188.507812 C 176.707031 188.628906 175.894531 189.242188 175.257812 190.171875 C 176.105469 187.878906 177.585938 186.320312 179.402344 186.140625 C 180.140625 186.066406 180.871094 186.234375 181.566406 186.59375 C 183.6875 187.964844 185.386719 191.1875 185.773438 195.089844 C 186.308594 200.484375 184.136719 205.113281 180.925781 205.429688 C 181.179688 205.40625 183.1875 205.1875 185.644531 204.917969 C 185.945312 204.621094 189.109375 201.625 192.875 201.292969 C 194.015625 201.25 194.867188 202.003906 194.914062 202.792969 L 194.945312 203.078125 C 194.898438 202.289062 194.101562 202.140625 192.964844 202.179688 C 188.996094 202.527344 185.613281 204.945312 185.613281 204.945312 L 186.183594 210.894531 C 179.871094 211.746094 175.335938 212.800781 175.351562 212.964844 C 175.359375 213.035156 173.808594 215.804688 173.09375 217.140625 L 175.492188 213.253906 L 173.371094 217.539062 C 173.210938 217.566406 173.058594 217.59375 172.910156 217.625 L 172.839844 217.628906 C 172.839844 217.632812 172.835938 217.632812 172.835938 217.636719 C 171.628906 217.867188 170.957031 218.054688 170.972656 218.179688 C 170.972656 218.191406 170.984375 218.199219 170.996094 218.207031 L 170.972656 218.210938 L 171.328125 221.765625 C 171.242188 221.769531 171.175781 221.777344 171.125 221.785156 C 170.59375 221.835938 170.101562 222.039062 169.675781 222.34375 L 175.441406 221.460938 L 175.421875 221.460938 C 179.9375 221.136719 186.414062 220.683594 187.199219 220.605469 C 185.226562 220.800781 183.824219 222.9375 184.066406 225.378906 C 184.308594 227.820312 186.105469 229.640625 188.078125 229.441406 C 187.9375 229.457031 187.632812 229.480469 187.207031 229.511719 C 185.671875 229.320312 185.121094 228.707031 185.121094 228.707031 L 183.140625 228.777344 L 182.738281 228.097656 L 184.445312 227.632812 L 182.558594 227.796875 L 182.113281 227.035156 L 184.019531 226.679688 L 181.949219 226.753906 L 181.417969 225.847656 L 180.871094 226.9375 L 180.691406 227.300781 L 180.351562 227.980469 L 180.210938 228.269531 L 179.894531 228.898438 L 179.675781 229.335938 L 176.550781 235.597656 L 180.667969 235.597656 L 182.300781 232.484375 L 182.09375 235.597656 L 192.878906 235.597656 L 193.734375 227.742188 L 199.992188 227.125 C 200.539062 227.070312 200.867188 225.875 200.726562 224.457031 C 200.683594 223.992188 200.589844 223.5625 200.46875 223.195312 C 200.621094 223.175781 200.773438 223.15625 200.925781 223.140625 C 200.898438 220.871094 202.355469 218.925781 204.394531 218.507812 C 204.527344 218.480469 204.667969 218.457031 204.804688 218.445312 C 204.949219 218.429688 205.089844 218.425781 205.230469 218.425781 C 205.277344 218.425781 205.324219 218.429688 205.371094 218.433594 C 205.464844 218.4375 205.554688 218.441406 205.644531 218.453125 C 205.703125 218.457031 205.757812 218.46875 205.816406 218.476562 C 205.894531 218.488281 205.972656 218.5 206.050781 218.515625 C 206.109375 218.53125 206.171875 218.546875 206.234375 218.5625 C 206.300781 218.582031 206.371094 218.601562 206.441406 218.621094 C 206.503906 218.644531 206.570312 218.667969 206.628906 218.691406 C 206.691406 218.714844 206.753906 218.738281 206.8125 218.765625 C 206.882812 218.792969 206.945312 218.824219 207.011719 218.855469 C 207.066406 218.882812 207.117188 218.910156 207.167969 218.9375 C 207.238281 218.976562 207.308594 219.015625 207.375 219.058594 C 207.414062 219.082031 207.453125 219.109375 207.492188 219.136719 C 207.570312 219.1875 207.644531 219.238281 207.71875 219.292969 C 207.734375 219.308594 207.753906 219.320312 207.769531 219.335938 C 208.371094 219.804688 208.859375 220.433594 209.1875 221.171875 C 209.1875 221.175781 209.1875 221.175781 209.1875 221.175781 C 209.242188 221.300781 209.292969 221.429688 209.335938 221.558594 C 209.339844 221.5625 209.339844 221.5625 209.339844 221.566406 C 209.382812 221.699219 209.425781 221.832031 209.460938 221.964844 C 209.523438 222.214844 209.574219 222.46875 209.597656 222.734375 C 209.859375 225.339844 208.128906 227.644531 205.742188 227.882812 C 206.28125 227.828125 207.332031 227.613281 208.453125 227.367188 C 208.367188 227.40625 208.316406 227.425781 208.316406 227.425781 L 216.824219 235.597656 L 218.589844 235.597656 L 209.277344 226.804688 C 209.898438 226.246094 210.640625 225.234375 210.910156 223.484375 C 210.910156 223.484375 210.914062 223.488281 210.921875 223.496094 C 210.925781 223.5 210.929688 223.507812 210.933594 223.511719 C 210.941406 223.519531 210.949219 223.523438 210.953125 223.53125 C 210.964844 223.542969 210.972656 223.550781 210.984375 223.5625 C 210.992188 223.574219 211.007812 223.582031 211.015625 223.597656 C 211.03125 223.613281 211.050781 223.628906 211.066406 223.648438 C 211.074219 223.652344 211.074219 223.65625 211.078125 223.65625 C 211.128906 223.710938 211.195312 223.773438 211.269531 223.851562 C 211.28125 223.863281 211.296875 223.875 211.304688 223.890625 C 211.339844 223.925781 211.371094 223.957031 211.410156 223.996094 C 211.410156 223.996094 211.417969 224 211.417969 224.003906 C 212.832031 225.4375 217.082031 229.746094 222.867188 235.597656 L 227.347656 235.597656 L 215.496094 223.339844 C 215.65625 222.773438 215.71875 222.152344 215.65625 221.519531 Z M 162.402344 153.09375 C 162.386719 153.097656 162.367188 153.097656 162.347656 153.101562 C 162.351562 153.097656 162.359375 153.101562 162.359375 153.101562 C 162.476562 153.089844 163.09375 153.0625 163.289062 153.054688 C 163.40625 153.050781 163.53125 153.007812 163.65625 152.894531 C 164.132812 152.476562 163.382812 151.398438 163.382812 151.398438 L 160.445312 146.980469 C 160.445312 146.980469 160.109375 146.445312 159.558594 146.507812 C 159.425781 146.523438 158.714844 146.546875 158.65625 146.550781 C 158.644531 146.550781 158.640625 146.550781 158.632812 146.550781 C 159.164062 146.511719 159.496094 147.03125 159.496094 147.03125 L 162.429688 151.445312 C 162.429688 151.445312 163.175781 152.527344 162.703125 152.945312 C 162.605469 153.03125 162.507812 153.074219 162.414062 153.089844 C 162.382812 153.089844 162.117188 153.082031 161.925781 152.890625 C 161.023438 151.96875 158.082031 148.4375 158.082031 148.4375 C 158.003906 148.28125 157.207031 147.609375 158.117188 146.796875 C 158.195312 146.726562 158.269531 146.671875 158.34375 146.628906 C 158.226562 146.679688 158.105469 146.757812 157.972656 146.871094 C 157.0625 147.683594 157.796875 148.417969 157.871094 148.574219 L 161.597656 152.664062 C 161.597656 152.664062 161.972656 153.167969 162.402344 153.09375 Z M 207.238281 222.96875 C 207.082031 221.390625 205.78125 220.226562 204.335938 220.367188 C 202.886719 220.511719 201.839844 221.90625 201.996094 223.488281 C 202.152344 225.066406 203.453125 226.230469 204.902344 226.089844 C 206.347656 225.945312 207.394531 224.546875 207.238281 222.96875 Z M 163.601562 155.632812 C 163.589844 155.632812 163.578125 155.632812 163.578125 155.632812 C 163.535156 155.628906 163.496094 155.628906 163.460938 155.628906 C 163.507812 155.628906 163.554688 155.628906 163.601562 155.632812 Z M 163.1875 155.902344 C 163.207031 155.90625 163.230469 155.910156 163.238281 155.910156 C 163.25 155.914062 163.257812 155.917969 163.265625 155.917969 C 163.238281 155.914062 163.214844 155.90625 163.1875 155.902344 Z M 161.542969 158.148438 C 161.546875 158.148438 161.550781 158.152344 161.558594 158.152344 C 161.539062 158.148438 161.523438 158.144531 161.507812 158.140625 C 161.519531 158.140625 161.53125 158.144531 161.542969 158.148438 Z M 164.195312 155.828125 C 164.0625 155.820312 162.980469 155.773438 162.449219 155.839844 C 162.453125 155.839844 162.46875 155.839844 162.476562 155.839844 C 162.445312 155.839844 162.410156 155.839844 162.378906 155.847656 C 160.863281 155.996094 159.621094 157.527344 159.035156 159.667969 C 158.5625 160.585938 158.304688 161.820312 158.375 163.152344 C 158.449219 164.496094 158.847656 165.675781 159.421875 166.488281 C 159.953125 167.777344 160.71875 168.757812 161.609375 169.246094 C 160.910156 168.769531 160.304688 167.980469 159.839844 166.984375 C 160.023438 167.160156 160.210938 167.304688 160.410156 167.414062 C 159.417969 166.734375 158.671875 165.164062 158.570312 163.269531 C 158.425781 160.636719 159.574219 158.375 161.136719 158.21875 C 161.496094 158.183594 161.847656 158.265625 162.175781 158.441406 C 163.175781 159.109375 163.925781 160.6875 164.03125 162.59375 C 164.175781 165.226562 163.027344 167.488281 161.464844 167.644531 C 161.789062 167.609375 161.9375 167.628906 162.4375 167.578125 C 163.988281 167.425781 165.128906 165.175781 164.988281 162.558594 C 164.851562 160.101562 163.636719 158.191406 162.207031 158.089844 C 162.113281 158.082031 161.359375 158.050781 160.992188 158.097656 C 160.992188 158.097656 161.003906 158.097656 161.007812 158.097656 C 160.988281 158.097656 160.964844 158.097656 160.945312 158.101562 C 160.484375 158.144531 160.058594 158.378906 159.695312 158.746094 C 160.359375 157.191406 161.414062 156.136719 162.660156 156.015625 C 163.175781 155.960938 163.679688 156.082031 164.152344 156.332031 C 165.589844 157.296875 166.675781 159.5625 166.828125 162.308594 C 167.035156 166.101562 165.378906 169.355469 163.132812 169.578125 C 163.601562 169.53125 163.8125 169.558594 164.527344 169.488281 C 166.765625 169.265625 168.40625 166.027344 168.199219 162.257812 C 168.007812 158.722656 166.257812 155.976562 164.195312 155.828125 Z M 161.542969 158.066406 C 161.535156 158.066406 161.527344 158.066406 161.519531 158.066406 C 161.496094 158.0625 161.46875 158.0625 161.445312 158.0625 C 161.480469 158.0625 161.511719 158.066406 161.542969 158.066406 " fill-opacity="1" fill-rule="nonzero"/></g><g transform="matrix(1, 0, 0, 1, 112, 250)"><g clip-path="url(#2d683826ed)"><g fill="#000000" fill-opacity="1"><g transform="translate(1.091598, 31.57406)"><g><path d="M 2.859375 -9.703125 L 3.859375 -9.703125 C 4.097656 -8.535156 4.4375 -7.398438 4.875 -6.296875 C 5.320312 -5.203125 5.863281 -4.210938 6.5 -3.328125 C 7.132812 -2.441406 7.847656 -1.738281 8.640625 -1.21875 C 9.429688 -0.695312 10.28125 -0.4375 11.1875 -0.4375 C 12.132812 -0.4375 12.898438 -0.554688 13.484375 -0.796875 C 14.066406 -1.046875 14.5 -1.359375 14.78125 -1.734375 C 15.0625 -2.117188 15.253906 -2.515625 15.359375 -2.921875 C 15.472656 -3.335938 15.53125 -3.71875 15.53125 -4.0625 C 15.53125 -4.644531 15.304688 -5.164062 14.859375 -5.625 C 14.421875 -6.082031 13.882812 -6.507812 13.25 -6.90625 L 6.46875 -11.28125 C 5.9375 -11.613281 5.394531 -12.046875 4.84375 -12.578125 C 4.300781 -13.109375 3.84375 -13.742188 3.46875 -14.484375 C 3.101562 -15.222656 2.921875 -16.078125 2.921875 -17.046875 C 2.921875 -18.503906 3.210938 -19.679688 3.796875 -20.578125 C 4.390625 -21.472656 5.160156 -22.117188 6.109375 -22.515625 C 7.066406 -22.921875 8.070312 -23.125 9.125 -23.125 C 9.820312 -23.125 10.472656 -23.023438 11.078125 -22.828125 C 11.679688 -22.628906 12.203125 -22.398438 12.640625 -22.140625 C 13.085938 -21.890625 13.414062 -21.691406 13.625 -21.546875 C 13.832031 -21.398438 14.035156 -21.269531 14.234375 -21.15625 C 14.441406 -21.039062 14.617188 -20.984375 14.765625 -20.984375 C 14.972656 -20.984375 15.132812 -21.050781 15.25 -21.1875 C 15.375 -21.320312 15.445312 -21.492188 15.46875 -21.703125 L 15.65625 -22.5625 L 16.671875 -22.5625 L 16.984375 -14.328125 L 15.96875 -14.328125 C 15.59375 -15.785156 15.039062 -17.101562 14.3125 -18.28125 C 13.582031 -19.46875 12.75 -20.40625 11.8125 -21.09375 C 10.882812 -21.78125 9.90625 -22.125 8.875 -22.125 C 6.675781 -22.125 5.578125 -21.234375 5.578125 -19.453125 C 5.578125 -18.734375 5.863281 -18.066406 6.4375 -17.453125 C 7.019531 -16.847656 7.671875 -16.300781 8.390625 -15.8125 L 15.203125 -11.40625 C 16.078125 -10.832031 16.769531 -10.046875 17.28125 -9.046875 C 17.800781 -8.046875 18.0625 -7.015625 18.0625 -5.953125 C 18.0625 -4.921875 17.804688 -3.898438 17.296875 -2.890625 C 16.796875 -1.890625 16.023438 -1.0625 14.984375 -0.40625 C 13.953125 0.25 12.625 0.578125 11 0.578125 C 9.976562 0.578125 9.101562 0.425781 8.375 0.125 C 7.644531 -0.164062 7.070312 -0.484375 6.65625 -0.828125 C 6.25 -1.140625 5.925781 -1.375 5.6875 -1.53125 C 5.445312 -1.695312 5.21875 -1.78125 5 -1.78125 C 4.5625 -1.78125 4.289062 -1.421875 4.1875 -0.703125 L 4.03125 0.3125 L 3.046875 0.3125 Z M 2.859375 -9.703125 "/></g></g></g><g fill="#000000" fill-opacity="1"><g transform="translate(22.385577, 31.57406)"><g><path d="M 7.765625 -7.15625 L 13.625 -7.15625 L 10.734375 -15.875 Z M 1.390625 0 L 1.390625 -1.015625 L 2.46875 -1.015625 C 3.144531 -1.015625 3.722656 -1.28125 4.203125 -1.8125 C 4.691406 -2.351562 5.046875 -2.941406 5.265625 -3.578125 L 11.953125 -23.125 L 13.28125 -23.125 L 20.0625 -2.625 C 20.414062 -1.550781 21.035156 -1.015625 21.921875 -1.015625 L 23.1875 -1.015625 L 23.1875 0 L 12.078125 0 L 12.078125 -1.015625 L 14.359375 -1.015625 C 14.609375 -1.015625 14.8125 -1.113281 14.96875 -1.3125 C 15.125 -1.507812 15.203125 -1.75 15.203125 -2.03125 C 15.203125 -2.132812 15.179688 -2.273438 15.140625 -2.453125 C 15.097656 -2.628906 15.054688 -2.796875 15.015625 -2.953125 L 14 -5.984375 L 7.34375 -5.984375 L 6.6875 -4.0625 C 6.457031 -3.46875 6.34375 -2.925781 6.34375 -2.4375 C 6.34375 -2.101562 6.484375 -1.78125 6.765625 -1.46875 C 7.046875 -1.164062 7.453125 -1.015625 7.984375 -1.015625 L 9.46875 -1.015625 L 9.46875 0 Z M 1.390625 0 "/></g></g></g><g fill="#000000" fill-opacity="1"><g transform="translate(47.925632, 31.57406)"><g><path d="M 1.96875 0 L 1.96875 -1.015625 L 4.1875 -1.015625 C 4.476562 -1.015625 4.675781 -1.070312 4.78125 -1.1875 C 4.882812 -1.300781 4.9375 -1.5 4.9375 -1.78125 L 4.9375 -20.78125 C 4.9375 -21.082031 4.882812 -21.285156 4.78125 -21.390625 C 4.675781 -21.492188 4.476562 -21.546875 4.1875 -21.546875 L 1.96875 -21.546875 L 1.96875 -22.5625 L 12.609375 -22.5625 L 12.609375 -21.546875 L 10.390625 -21.546875 C 10.117188 -21.546875 9.925781 -21.492188 9.8125 -21.390625 C 9.695312 -21.285156 9.640625 -21.082031 9.640625 -20.78125 L 9.640625 -12.421875 L 17.109375 -12.421875 L 17.109375 -20.78125 C 17.109375 -21.082031 17.054688 -21.285156 16.953125 -21.390625 C 16.847656 -21.492188 16.644531 -21.546875 16.34375 -21.546875 L 14.0625 -21.546875 L 14.0625 -22.5625 L 24.78125 -22.5625 L 24.78125 -21.546875 L 22.5625 -21.546875 C 22.289062 -21.546875 22.09375 -21.492188 21.96875 -21.390625 C 21.851562 -21.285156 21.796875 -21.082031 21.796875 -20.78125 L 21.796875 -1.78125 C 21.796875 -1.5 21.851562 -1.300781 21.96875 -1.1875 C 22.09375 -1.070312 22.289062 -1.015625 22.5625 -1.015625 L 24.78125 -1.015625 L 24.78125 0 L 14.125 0 L 14.125 -1.015625 L 16.34375 -1.015625 C 16.644531 -1.015625 16.847656 -1.070312 16.953125 -1.1875 C 17.054688 -1.300781 17.109375 -1.5 17.109375 -1.78125 L 17.109375 -11.28125 L 9.640625 -11.28125 L 9.640625 -1.78125 C 9.640625 -1.5 9.695312 -1.300781 9.8125 -1.1875 C 9.925781 -1.070312 10.117188 -1.015625 10.390625 -1.015625 L 12.609375 -1.015625 L 12.609375 0 Z M 1.96875 0 "/></g></g></g><g fill="#000000" fill-opacity="1"><g transform="translate(75.683786, 31.57406)"><g><path d="M 7.765625 -7.15625 L 13.625 -7.15625 L 10.734375 -15.875 Z M 1.390625 0 L 1.390625 -1.015625 L 2.46875 -1.015625 C 3.144531 -1.015625 3.722656 -1.28125 4.203125 -1.8125 C 4.691406 -2.351562 5.046875 -2.941406 5.265625 -3.578125 L 11.953125 -23.125 L 13.28125 -23.125 L 20.0625 -2.625 C 20.414062 -1.550781 21.035156 -1.015625 21.921875 -1.015625 L 23.1875 -1.015625 L 23.1875 0 L 12.078125 0 L 12.078125 -1.015625 L 14.359375 -1.015625 C 14.609375 -1.015625 14.8125 -1.113281 14.96875 -1.3125 C 15.125 -1.507812 15.203125 -1.75 15.203125 -2.03125 C 15.203125 -2.132812 15.179688 -2.273438 15.140625 -2.453125 C 15.097656 -2.628906 15.054688 -2.796875 15.015625 -2.953125 L 14 -5.984375 L 7.34375 -5.984375 L 6.6875 -4.0625 C 6.457031 -3.46875 6.34375 -2.925781 6.34375 -2.4375 C 6.34375 -2.101562 6.484375 -1.78125 6.765625 -1.46875 C 7.046875 -1.164062 7.453125 -1.015625 7.984375 -1.015625 L 9.46875 -1.015625 L 9.46875 0 Z M 1.390625 0 "/></g></g></g><g fill="#000000" fill-opacity="1"><g transform="translate(101.223841, 31.57406)"><g><path d="M 9.640625 -12.546875 L 11.75 -12.546875 C 12.550781 -12.546875 13.171875 -12.75 13.609375 -13.15625 C 14.046875 -13.570312 14.347656 -14.132812 14.515625 -14.84375 C 14.679688 -15.550781 14.765625 -16.347656 14.765625 -17.234375 C 14.765625 -18.566406 14.554688 -19.617188 14.140625 -20.390625 C 13.734375 -21.160156 12.9375 -21.546875 11.75 -21.546875 L 10.390625 -21.546875 C 10.117188 -21.546875 9.925781 -21.492188 9.8125 -21.390625 C 9.695312 -21.285156 9.640625 -21.082031 9.640625 -20.78125 Z M 1.96875 0 L 1.96875 -1.015625 L 4.1875 -1.015625 C 4.476562 -1.015625 4.675781 -1.070312 4.78125 -1.1875 C 4.882812 -1.300781 4.9375 -1.5 4.9375 -1.78125 L 4.9375 -20.78125 C 4.9375 -21.082031 4.882812 -21.285156 4.78125 -21.390625 C 4.675781 -21.492188 4.476562 -21.546875 4.1875 -21.546875 L 1.96875 -21.546875 L 1.96875 -22.5625 L 12.234375 -22.5625 C 13.734375 -22.5625 15.050781 -22.335938 16.1875 -21.890625 C 17.332031 -21.453125 18.226562 -20.816406 18.875 -19.984375 C 19.519531 -19.148438 19.84375 -18.148438 19.84375 -16.984375 C 19.84375 -15.972656 19.582031 -15.117188 19.0625 -14.421875 C 18.539062 -13.722656 17.84375 -13.164062 16.96875 -12.75 C 16.09375 -12.34375 15.101562 -12.078125 14 -11.953125 L 14 -11.71875 C 15 -11.550781 15.882812 -11.253906 16.65625 -10.828125 C 17.425781 -10.410156 18.03125 -9.8125 18.46875 -9.03125 C 18.914062 -8.25 19.140625 -7.191406 19.140625 -5.859375 L 19.140625 -2.34375 C 19.140625 -1.457031 19.4375 -1.015625 20.03125 -1.015625 C 20.425781 -1.015625 20.738281 -1.242188 20.96875 -1.703125 C 21.207031 -2.171875 21.375 -2.769531 21.46875 -3.5 C 21.5625 -4.226562 21.609375 -4.960938 21.609375 -5.703125 L 22.625 -5.703125 C 22.625 -4.472656 22.519531 -3.375 22.3125 -2.40625 C 22.113281 -1.4375 21.738281 -0.664062 21.1875 -0.09375 C 20.644531 0.476562 19.867188 0.765625 18.859375 0.765625 C 17.566406 0.765625 16.507812 0.375 15.6875 -0.40625 C 14.863281 -1.1875 14.453125 -2.382812 14.453125 -4 L 14.453125 -7.921875 C 14.453125 -8.535156 14.347656 -9.113281 14.140625 -9.65625 C 13.941406 -10.207031 13.617188 -10.65625 13.171875 -11 C 12.734375 -11.351562 12.144531 -11.53125 11.40625 -11.53125 L 9.640625 -11.53125 L 9.640625 -1.78125 C 9.640625 -1.5 9.695312 -1.300781 9.8125 -1.1875 C 9.925781 -1.070312 10.117188 -1.015625 10.390625 -1.015625 L 13.1875 -1.015625 L 13.1875 0 Z M 1.96875 0 "/></g></g></g><g fill="#000000" fill-opacity="1"><g transform="translate(126.003407, 31.57406)"><g><path d="M 7.765625 -7.15625 L 13.625 -7.15625 L 10.734375 -15.875 Z M 1.390625 0 L 1.390625 -1.015625 L 2.46875 -1.015625 C 3.144531 -1.015625 3.722656 -1.28125 4.203125 -1.8125 C 4.691406 -2.351562 5.046875 -2.941406 5.265625 -3.578125 L 11.953125 -23.125 L 13.28125 -23.125 L 20.0625 -2.625 C 20.414062 -1.550781 21.035156 -1.015625 21.921875 -1.015625 L 23.1875 -1.015625 L 23.1875 0 L 12.078125 0 L 12.078125 -1.015625 L 14.359375 -1.015625 C 14.609375 -1.015625 14.8125 -1.113281 14.96875 -1.3125 C 15.125 -1.507812 15.203125 -1.75 15.203125 -2.03125 C 15.203125 -2.132812 15.179688 -2.273438 15.140625 -2.453125 C 15.097656 -2.628906 15.054688 -2.796875 15.015625 -2.953125 L 14 -5.984375 L 7.34375 -5.984375 L 6.6875 -4.0625 C 6.457031 -3.46875 6.34375 -2.925781 6.34375 -2.4375 C 6.34375 -2.101562 6.484375 -1.78125 6.765625 -1.46875 C 7.046875 -1.164062 7.453125 -1.015625 7.984375 -1.015625 L 9.46875 -1.015625 L 9.46875 0 Z M 1.390625 0 "/></g></g></g></g></g><g transform="matrix(1, 0, 0, 1, 152, 289)"><g clip-path="url(#7bede6a009)"><g fill="#000000" fill-opacity="1"><g transform="translate(0.762588, 14.814664)"><g><path d="M 1.109375 -5.734375 C 1.109375 -6.523438 1.207031 -7.269531 1.40625 -7.96875 C 1.613281 -8.675781 1.90625 -9.296875 2.28125 -9.828125 C 2.664062 -10.367188 3.128906 -10.789062 3.671875 -11.09375 C 4.222656 -11.40625 4.847656 -11.5625 5.546875 -11.5625 C 5.941406 -11.5625 6.316406 -11.476562 6.671875 -11.3125 C 7.023438 -11.144531 7.304688 -10.988281 7.515625 -10.84375 C 7.679688 -10.71875 7.816406 -10.613281 7.921875 -10.53125 C 8.078125 -10.382812 8.222656 -10.3125 8.359375 -10.3125 C 8.453125 -10.3125 8.519531 -10.335938 8.5625 -10.390625 C 8.601562 -10.453125 8.644531 -10.539062 8.6875 -10.65625 L 8.953125 -11.4375 L 9.34375 -11.4375 L 9.34375 -7.03125 L 8.953125 -7.03125 C 8.710938 -7.925781 8.40625 -8.671875 8.03125 -9.265625 C 7.65625 -9.867188 7.25 -10.316406 6.8125 -10.609375 C 6.382812 -10.910156 5.960938 -11.0625 5.546875 -11.0625 C 4.785156 -11.0625 4.207031 -10.84375 3.8125 -10.40625 C 3.414062 -9.96875 3.144531 -9.347656 3 -8.546875 C 2.851562 -7.742188 2.78125 -6.804688 2.78125 -5.734375 C 2.78125 -4.660156 2.863281 -3.707031 3.03125 -2.875 C 3.195312 -2.039062 3.492188 -1.390625 3.921875 -0.921875 C 4.359375 -0.453125 4.984375 -0.21875 5.796875 -0.21875 C 6.347656 -0.21875 6.820312 -0.328125 7.21875 -0.546875 C 7.613281 -0.773438 7.9375 -1.078125 8.1875 -1.453125 C 8.445312 -1.828125 8.644531 -2.242188 8.78125 -2.703125 C 8.914062 -3.160156 9 -3.628906 9.03125 -4.109375 L 9.59375 -4.109375 C 9.582031 -3.804688 9.539062 -3.460938 9.46875 -3.078125 C 9.394531 -2.691406 9.273438 -2.300781 9.109375 -1.90625 C 8.941406 -1.519531 8.710938 -1.160156 8.421875 -0.828125 C 8.140625 -0.492188 7.785156 -0.222656 7.359375 -0.015625 C 6.929688 0.179688 6.410156 0.28125 5.796875 0.28125 C 5.023438 0.28125 4.347656 0.109375 3.765625 -0.234375 C 3.191406 -0.578125 2.707031 -1.035156 2.3125 -1.609375 C 1.914062 -2.179688 1.613281 -2.828125 1.40625 -3.546875 C 1.207031 -4.265625 1.109375 -4.992188 1.109375 -5.734375 Z M 1.109375 -5.734375 "/></g></g></g><g fill="#000000" fill-opacity="1"><g transform="translate(12.197292, 14.814664)"><g><path d="M 0.984375 0 L 0.984375 -0.5 L 2.125 -0.5 C 2.40625 -0.5 2.546875 -0.644531 2.546875 -0.9375 L 2.546875 -10.34375 C 2.546875 -10.632812 2.40625 -10.78125 2.125 -10.78125 L 0.984375 -10.78125 L 0.984375 -11.28125 L 5.578125 -11.28125 L 5.578125 -10.78125 L 4.4375 -10.78125 C 4.15625 -10.78125 4.015625 -10.632812 4.015625 -10.34375 L 4.015625 -0.9375 C 4.015625 -0.644531 4.15625 -0.5 4.4375 -0.5 L 5.578125 -0.5 L 5.578125 0 Z M 0.984375 0 "/></g></g></g><g fill="#000000" fill-opacity="1"><g transform="translate(19.261016, 14.814664)"><g><path d="M 0.984375 0 L 0.984375 -0.5 L 1.546875 -0.5 C 1.859375 -0.5 2.101562 -0.613281 2.28125 -0.84375 C 2.457031 -1.070312 2.546875 -1.382812 2.546875 -1.78125 L 2.546875 -10.34375 C 2.535156 -10.632812 2.394531 -10.78125 2.125 -10.78125 L 0.984375 -10.78125 L 0.984375 -11.28125 L 3.984375 -11.28125 L 9.46875 -2.4375 L 9.46875 -9.5 C 9.46875 -9.90625 9.378906 -10.21875 9.203125 -10.4375 C 9.023438 -10.664062 8.789062 -10.78125 8.5 -10.78125 L 7.921875 -10.78125 L 7.921875 -11.28125 L 11.6875 -11.28125 L 11.6875 -10.78125 L 11.125 -10.78125 C 10.820312 -10.78125 10.578125 -10.664062 10.390625 -10.4375 C 10.203125 -10.21875 10.109375 -9.90625 10.109375 -9.5 L 10.109375 0.28125 L 9.46875 0.28125 L 3.25 -9.546875 L 3.1875 -9.546875 L 3.1875 -1.78125 C 3.1875 -1.382812 3.273438 -1.070312 3.453125 -0.84375 C 3.640625 -0.613281 3.882812 -0.5 4.1875 -0.5 L 4.75 -0.5 L 4.75 0 Z M 0.984375 0 "/></g></g></g><g fill="#000000" fill-opacity="1"><g transform="translate(32.279401, 14.814664)"><g><path d="M 0.984375 0 L 0.984375 -0.5 L 2.125 -0.5 C 2.40625 -0.5 2.546875 -0.644531 2.546875 -0.9375 L 2.546875 -10.34375 C 2.546875 -10.632812 2.40625 -10.78125 2.125 -10.78125 L 0.984375 -10.78125 L 0.984375 -11.28125 L 9.828125 -11.28125 L 9.890625 -7.703125 L 9.484375 -7.703125 C 9.484375 -7.703125 9.472656 -7.8125 9.453125 -8.03125 C 9.429688 -8.257812 9.375 -8.539062 9.28125 -8.875 C 9.195312 -9.207031 9.050781 -9.535156 8.84375 -9.859375 C 8.59375 -10.222656 8.300781 -10.46875 7.96875 -10.59375 C 7.632812 -10.71875 7.304688 -10.78125 6.984375 -10.78125 L 4.4375 -10.78125 C 4.15625 -10.78125 4.015625 -10.632812 4.015625 -10.34375 L 4.015625 -6.015625 L 5.40625 -6.015625 C 5.8125 -6.015625 6.101562 -6.132812 6.28125 -6.375 C 6.46875 -6.613281 6.582031 -6.898438 6.625 -7.234375 C 6.675781 -7.578125 6.703125 -7.898438 6.703125 -8.203125 L 7.109375 -8.203125 L 7.109375 -3.25 L 6.703125 -3.25 C 6.703125 -3.5625 6.675781 -3.882812 6.625 -4.21875 C 6.582031 -4.5625 6.46875 -4.851562 6.28125 -5.09375 C 6.101562 -5.332031 5.8125 -5.453125 5.40625 -5.453125 L 4.015625 -5.453125 L 4.015625 -0.9375 C 4.015625 -0.644531 4.15625 -0.5 4.4375 -0.5 L 6.96875 -0.5 C 7.195312 -0.5 7.484375 -0.554688 7.828125 -0.671875 C 8.179688 -0.796875 8.476562 -1.007812 8.71875 -1.3125 C 8.894531 -1.550781 9.039062 -1.835938 9.15625 -2.171875 C 9.28125 -2.503906 9.375 -2.828125 9.4375 -3.140625 C 9.5 -3.460938 9.546875 -3.726562 9.578125 -3.9375 C 9.609375 -4.144531 9.625 -4.25 9.625 -4.25 L 10.015625 -4.25 L 9.828125 0 Z M 0.984375 0 "/></g></g></g><g fill="#000000" fill-opacity="1"><g transform="translate(44.030842, 14.814664)"><g><path d="M 0.984375 0 L 0.984375 -0.5 L 1.546875 -0.5 C 1.847656 -0.5 2.085938 -0.613281 2.265625 -0.84375 C 2.453125 -1.070312 2.546875 -1.382812 2.546875 -1.78125 L 2.546875 -10.34375 C 2.546875 -10.632812 2.40625 -10.78125 2.125 -10.78125 L 0.984375 -10.78125 L 0.984375 -11.28125 L 4.34375 -11.28125 L 6.921875 -2.546875 L 9.328125 -11.28125 L 12.609375 -11.28125 L 12.609375 -10.78125 L 11.46875 -10.78125 C 11.1875 -10.78125 11.046875 -10.632812 11.046875 -10.34375 L 11.046875 -0.9375 C 11.046875 -0.644531 11.1875 -0.5 11.46875 -0.5 L 12.609375 -0.5 L 12.609375 0 L 8.015625 0 L 8.015625 -0.5 L 9.15625 -0.5 C 9.4375 -0.5 9.578125 -0.644531 9.578125 -0.9375 L 9.578125 -10.28125 L 6.6875 0.1875 L 6.3125 0.1875 L 3.28125 -9.859375 L 3.1875 -9.859375 L 3.1875 -1.78125 C 3.1875 -1.382812 3.273438 -1.070312 3.453125 -0.84375 C 3.640625 -0.613281 3.882812 -0.5 4.1875 -0.5 L 4.75 -0.5 L 4.75 0 Z M 0.984375 0 "/></g></g></g><g fill="#000000" fill-opacity="1"><g transform="translate(58.126141, 14.814664)"><g><path d="M 4.21875 -3.890625 L 7.46875 -3.890625 L 5.8125 -8.703125 Z M 0.734375 0 L 0.734375 -0.5 L 1.3125 -0.5 C 1.59375 -0.5 1.816406 -0.5625 1.984375 -0.6875 C 2.148438 -0.8125 2.285156 -0.960938 2.390625 -1.140625 C 2.492188 -1.316406 2.578125 -1.488281 2.640625 -1.65625 L 6.046875 -11.28125 L 6.484375 -11.28125 L 9.921875 -1.203125 C 10.035156 -0.929688 10.164062 -0.742188 10.3125 -0.640625 C 10.46875 -0.546875 10.65625 -0.5 10.875 -0.5 L 11.75 -0.5 L 11.75 0 L 6.84375 0 L 6.84375 -0.5 L 7.890625 -0.5 C 8.046875 -0.5 8.175781 -0.539062 8.28125 -0.625 C 8.382812 -0.707031 8.4375 -0.800781 8.4375 -0.90625 C 8.4375 -0.957031 8.429688 -1.015625 8.421875 -1.078125 C 8.410156 -1.140625 8.394531 -1.195312 8.375 -1.25 L 7.671875 -3.328125 L 4.015625 -3.328125 L 3.640625 -2.296875 C 3.585938 -2.140625 3.535156 -1.972656 3.484375 -1.796875 C 3.441406 -1.628906 3.421875 -1.476562 3.421875 -1.34375 C 3.421875 -1.175781 3.472656 -0.992188 3.578125 -0.796875 C 3.679688 -0.597656 3.898438 -0.5 4.234375 -0.5 L 5.0625 -0.5 L 5.0625 0 Z M 0.734375 0 "/></g></g></g></g></g></svg>